<svg width="58" height="58" viewBox="0 0 58 58" fill="none" xmlns="http://www.w3.org/2000/svg">
<circle cx="29" cy="28.9854" r="28.2904" fill="#FB7504" stroke="#E26904" stroke-width="0.884076"/>
<g clip-path="url(#clip0_690_1005)">
<path d="M18.2584 30.8809H25.0378V40.8094H18.2584V30.8809Z" fill="white"/>
<path d="M27.9245 24.7573H34.7039V40.8092H27.9245V24.7573Z" fill="white"/>
<path d="M37.5906 17.8906H44.37V40.8094H37.5906V17.8906Z" fill="white"/>
<path d="M44.37 42.9089H15.3279V13.8668C15.3279 13.4794 15.0155 13.167 14.6281 13.167C14.2407 13.167 13.9283 13.4794 13.9283 13.8668V43.6087C13.9283 43.9961 14.2407 44.3085 14.6281 44.3085H44.37C44.7574 44.3085 45.0698 43.9961 45.0698 43.6087C45.0698 43.2213 44.7574 42.9089 44.37 42.9089Z" fill="white"/>
<path d="M19.0269 27.7755C19.2081 27.7755 19.3831 27.7068 19.5205 27.5693L31.5298 15.5538V18.6405C31.5298 19.0279 31.8422 19.3403 32.2296 19.3403C32.617 19.3403 32.9294 19.0279 32.9294 18.6405V13.8668C32.9294 13.8231 32.9231 13.7731 32.9169 13.7293C32.9106 13.7106 32.9044 13.6918 32.8981 13.6669C32.8919 13.6419 32.8856 13.6169 32.8731 13.5981C32.8607 13.5731 32.8482 13.5544 32.8357 13.5294C32.8232 13.5106 32.8169 13.4919 32.8044 13.4732C32.7544 13.3982 32.6857 13.3294 32.6107 13.2795C32.592 13.267 32.5795 13.2607 32.5607 13.2545C32.5357 13.242 32.517 13.2295 32.492 13.217C32.467 13.2107 32.4483 13.2045 32.4233 13.1982C32.4045 13.192 32.3858 13.1857 32.3608 13.1795C32.3233 13.1732 32.2796 13.167 32.2358 13.167H27.4621C27.0747 13.167 26.7623 13.4794 26.7623 13.8668C26.7623 14.2542 27.0747 14.5666 27.4621 14.5666H30.5488L18.5333 26.5758C18.2584 26.8508 18.2584 27.2944 18.5333 27.5631C18.6645 27.7068 18.8457 27.7755 19.0269 27.7755Z" fill="white"/>
</g>
<defs>
<clipPath id="clip0_690_1005">
<rect width="31.1415" height="31.1415" fill="white" transform="translate(13.9283 13.167)"/>
</clipPath>
</defs>
</svg>
