<svg width="62" height="62" viewBox="0 0 62 62" fill="none" xmlns="http://www.w3.org/2000/svg">
<circle cx="30.7446" cy="31.3266" r="29.9788" fill="#558EC7" stroke="#4D80B3" stroke-width="0.936837"/>
<path d="M45.2624 29.0949C44.6719 29.0949 44.1035 29.1826 43.5721 29.3506C43.5647 26.2317 41.0109 23.7045 37.8593 23.7045C36.7891 23.7045 35.7853 24.0039 34.9291 24.5079C33.5341 21.0896 30.1462 18.6792 26.1974 18.6792C21.3187 18.6792 17.3108 22.3459 16.8237 27.0424C14.2773 28.0504 12.4763 30.5119 12.4763 33.3898C12.4763 37.0564 15.3918 40.0438 19.0527 40.2118C19.0822 40.2118 19.1044 40.2191 19.1339 40.2191H45.1443C45.159 40.2191 45.1738 40.2191 45.1812 40.2118C45.2107 40.2118 45.2328 40.2191 45.2624 40.2191C48.3697 40.2191 50.8866 37.7284 50.8866 34.6534C50.8866 31.5856 48.3697 29.0949 45.2624 29.0949Z" fill="white"/>
</svg>
