<svg width="62" height="62" viewBox="0 0 62 62" fill="none" xmlns="http://www.w3.org/2000/svg">
<circle cx="30.601" cy="31.3266" r="29.9788" fill="#FB7504" stroke="#E26904" stroke-width="0.936837"/>
<path d="M47.3304 23.1292H37.0852V18.3513C37.0852 17.4457 36.726 16.5792 36.0857 15.939C35.4454 15.291 34.5786 14.9319 33.665 14.9319H21.3739C20.4602 14.9319 19.5935 15.291 18.9531 15.9312C18.3128 16.5713 17.9536 17.4379 17.9536 18.3513V44.3095C17.9536 45.2151 18.3128 46.0817 18.9531 46.7219C19.5935 47.362 20.4602 47.7212 21.3739 47.7212H33.6728C34.5786 47.7212 35.4454 47.362 36.0857 46.7219C36.726 46.0817 37.0852 45.2151 37.0852 44.3095V39.5238H47.3304C48.2363 39.5238 49.103 39.1647 49.7434 38.5246C50.3837 37.8844 50.7429 37.0178 50.7429 36.1122V26.5487C50.7429 25.6431 50.3837 24.7765 49.7434 24.1363C49.1108 23.4883 48.2441 23.1292 47.3304 23.1292ZM24.107 16.2981H30.9397V16.9851C30.9397 17.3599 30.6352 17.6643 30.2525 17.6721H24.7863C24.4115 17.6721 24.107 17.3677 24.0992 16.9851V16.2981H24.107ZM30.2525 44.9887H24.7863C24.4115 44.9887 24.0992 44.6843 24.0992 44.3017C24.0992 43.9192 24.4037 43.6147 24.7863 43.6147H30.2525C30.6273 43.6147 30.9397 43.9192 30.9397 44.3017C30.9397 44.6843 30.6273 44.9887 30.2525 44.9887ZM49.3842 36.1044C49.3842 36.6509 49.1655 37.1661 48.7829 37.5487C48.4002 37.9312 47.8771 38.1498 47.3382 38.1498H30.2525C29.7059 38.1498 29.1905 37.9312 28.8079 37.5487C28.4253 37.1661 28.2066 36.6431 28.2066 36.1044V29.9525H49.392L49.3842 36.1044ZM49.3842 27.2279H28.1988V26.5409C28.1988 25.9944 28.4174 25.4791 28.8001 25.0966C29.1827 24.714 29.7059 24.4954 30.2447 24.4954H47.3226C47.8692 24.4954 48.3846 24.714 48.7673 25.0966C49.1499 25.4791 49.3685 26.0022 49.3685 26.5409L49.3842 27.2279Z" fill="white"/>
</svg>
