<svg width="62" height="61" viewBox="0 0 62 61" fill="none" xmlns="http://www.w3.org/2000/svg">
<circle cx="30.971" cy="30.5522" r="29.9788" fill="#FB7504" stroke="#E26904" stroke-width="0.936837"/>
<g clip-path="url(#clip0_373_1049)">
<path d="M29.4199 50.1049H31.6195C32.5156 50.1049 33.3385 49.7273 33.925 49.1231C34.0717 48.9721 34.2101 48.7958 34.3323 48.6196H26.7071C27.2937 49.5175 28.2957 50.1049 29.4199 50.1049Z" fill="white"/>
<path d="M27.8721 33.8845C27.6684 33.8845 27.4973 34.0523 27.4973 34.2705C27.4973 34.4887 27.6602 34.6565 27.8721 34.6565H28.2468V34.2705C28.2468 34.0607 28.0757 33.8845 27.8721 33.8845Z" fill="white"/>
<path d="M30.0635 36.5278H30.976V39.0788H30.0635V36.5278Z" fill="white"/>
<path d="M33.5422 34.2705C33.5422 34.0607 33.3792 33.8845 33.1674 33.8845C32.9556 33.8845 32.7927 34.0523 32.7927 34.2705V34.6565H33.1674C33.3792 34.6481 33.5422 34.4803 33.5422 34.2705Z" fill="white"/>
<path d="M30.0635 16.7159C29.4851 16.7411 28.9149 16.825 28.369 16.9592C24.4179 17.9242 21.3466 21.5241 21.1022 25.8205C20.9719 28.1365 21.6155 30.2763 22.8049 32.0049C24.255 34.1279 25.2326 36.5362 25.534 39.0788H28.2468V36.5278H27.8802C26.6745 36.5278 25.6888 35.5124 25.6888 34.2705C25.6888 33.0286 26.6745 32.0133 27.8802 32.0133C29.0859 32.0133 30.0717 33.0286 30.0717 34.2705V34.6481H30.9841V34.2705C30.9841 33.0286 31.9699 32.0133 33.1756 32.0133C34.3813 32.0133 35.367 33.0286 35.367 34.2705C35.367 35.5124 34.3813 36.5278 33.1756 36.5278H32.809V39.0788H35.5218C35.6358 38.1473 35.8314 37.2243 36.1002 36.3348C36.5483 34.8411 37.2407 33.4398 38.145 32.1643C39.2937 30.5532 39.9617 28.5728 39.9617 26.4246C39.9617 20.9031 35.4892 16.4474 30.0635 16.7159Z" fill="white"/>
<path d="M32.8008 40.9585H28.2468H23.4158V46.7401H37.6317V40.9585H32.8008Z" fill="white"/>
<path d="M30.5197 13.8041C31.0248 13.8041 31.4321 13.3846 31.4321 12.8643V10.0448C31.4321 9.52455 31.0248 9.10498 30.5197 9.10498C30.0146 9.10498 29.6073 9.52455 29.6073 10.0448V12.8643C29.6073 13.3846 30.0228 13.8041 30.5197 13.8041Z" fill="white"/>
<path d="M44.255 13.5523C43.8965 13.1831 43.3181 13.1831 42.9678 13.5523L40.7438 15.8431C40.3853 16.2124 40.3853 16.8081 40.7438 17.169C40.923 17.3536 41.1592 17.4459 41.3873 17.4459C41.6154 17.4459 41.8517 17.3536 42.0309 17.169L44.255 14.8781C44.6134 14.5089 44.6134 13.9215 44.255 13.5523Z" fill="white"/>
<path d="M18.0798 13.5523C17.7214 13.1831 17.1429 13.1831 16.7926 13.5523C16.4342 13.9215 16.4342 14.5173 16.7926 14.8781L19.0167 17.169C19.1959 17.3536 19.4322 17.4459 19.6603 17.4459C19.8884 17.4459 20.1246 17.3536 20.3038 17.169C20.6623 16.7997 20.6623 16.204 20.3038 15.8431L18.0798 13.5523Z" fill="white"/>
</g>
<defs>
<clipPath id="clip0_373_1049">
<rect width="28" height="41" fill="white" transform="translate(16.5238 9.10498)"/>
</clipPath>
</defs>
</svg>
