<svg width="62" height="62" viewBox="0 0 62 62" fill="none" xmlns="http://www.w3.org/2000/svg">
<circle cx="30.7781" cy="31.2365" r="30.4472" fill="#E4451D"/>
<path fill-rule="evenodd" clip-rule="evenodd" d="M30.831 15.9142C22.3396 15.9142 15.456 22.7978 15.456 31.2892C15.456 39.7806 22.3396 46.6642 30.831 46.6642C39.3224 46.6642 46.206 39.7806 46.206 31.2892C46.206 22.7978 39.3224 15.9142 30.831 15.9142ZM12.0393 31.2892C12.0393 20.9109 20.4526 12.4976 30.831 12.4976C41.2093 12.4976 49.6226 20.9109 49.6226 31.2892C49.6226 41.6676 41.2093 50.0809 30.831 50.0809C20.4526 50.0809 12.0393 41.6676 12.0393 31.2892Z" fill="white"/>
<path fill-rule="evenodd" clip-rule="evenodd" d="M12.0393 31.2892C12.0393 30.3457 12.8042 29.5809 13.7476 29.5809H47.9143C48.8578 29.5809 49.6226 30.3457 49.6226 31.2892C49.6226 32.2327 48.8578 32.9976 47.9143 32.9976H13.7476C12.8042 32.9976 12.0393 32.2327 12.0393 31.2892Z" fill="white"/>
<path fill-rule="evenodd" clip-rule="evenodd" d="M25.7064 31.2892C25.8235 36.5421 27.63 41.5993 30.831 45.7233C34.032 41.5993 35.8385 36.5421 35.9556 31.2892C35.8385 26.0364 34.032 20.9792 30.831 16.8552C27.63 20.9792 25.8235 26.0364 25.7064 31.2892ZM30.831 14.2059L29.5696 13.0538C25.0173 18.0375 22.4303 24.5052 22.2897 31.2536C22.2892 31.2774 22.2892 31.3011 22.2897 31.3248C22.4303 38.0733 25.0173 44.5409 29.5696 49.5247C29.8933 49.879 30.3511 50.0809 30.831 50.0809C31.3109 50.0809 31.7687 49.879 32.0923 49.5247C36.6446 44.5409 39.2317 38.0733 39.3723 31.3248C39.3728 31.3011 39.3728 31.2774 39.3723 31.2536C39.2317 24.5052 36.6446 18.0375 32.0923 13.0538L30.831 14.2059Z" fill="white"/>
</svg>
