<svg width="61" height="61" viewBox="0 0 61 61" fill="none" xmlns="http://www.w3.org/2000/svg">
<circle cx="30.4472" cy="30.4472" r="30.4472" fill="#E4451D"/>
<path d="M23.3478 12C22.0481 12 21 13.0653 21 14.3864V44.6136C21 45.9347 22.0481 47 23.3478 47H36.6522C37.9519 47 39 45.9347 39 44.6136V14.3864C39 13.0653 37.9519 12 36.6522 12H23.3478ZM22.5652 15.9773H37.4348V41.4318H22.5652V15.9773ZM30 43.0227C30.6498 43.0227 31.1739 43.5554 31.1739 44.2159C31.1739 44.8764 30.6498 45.4091 30 45.4091C29.3502 45.4091 28.8261 44.8764 28.8261 44.2159C28.8261 43.5554 29.3502 43.0227 30 43.0227Z" fill="white"/>
</svg>
