<svg width="396" height="190" viewBox="0 0 396 190" fill="none" xmlns="http://www.w3.org/2000/svg">
<path d="M155.95 22.6729C153.727 24.6279 151.822 26.257 150.234 28.212C130.548 48.4133 111.178 68.6146 91.8093 88.8159C86.7289 94.0292 86.4114 95.3325 91.1743 100.22C112.449 122.376 133.723 144.207 155.315 166.037C155.315 166.037 155.632 166.037 156.585 166.363C157.855 165.06 159.125 163.756 160.713 162.453C176.906 145.836 193.1 129.219 208.977 112.601C212.787 108.691 216.915 106.736 222.313 106.736C244.857 107.062 267.402 106.736 289.946 106.736C291.851 106.736 294.074 106.736 295.979 106.736C300.742 106.411 301.695 105.433 302.012 100.872C302.33 98.2649 302.012 95.6583 302.012 93.0517C302.012 20.7179 302.012 -51.6158 302.012 -124.275C302.012 -128.185 302.33 -131.769 302.647 -136.983C306.457 -134.702 308.998 -133.724 310.903 -132.095C347.418 -106.029 372.185 -71.1655 386.474 -28.1562C393.142 -8.60658 396 11.5947 396 32.4477C396 47.4358 395.365 62.4239 392.825 77.4119C390.285 91.7484 385.204 105.433 379.806 118.792C369.645 142.903 355.357 164.408 336.94 182.654C315.031 204.159 289.946 220.45 261.051 230.225C241.364 237.068 221.36 240 200.403 240C184.845 240 169.603 239.348 154.362 236.09C137.216 232.18 121.022 225.664 105.145 217.518C87.0464 208.069 70.8526 196.013 56.8814 181.351C34.972 157.891 18.1431 130.848 8.61731 99.2424C4.80699 86.2093 0.679137 73.1762 0.36161 59.8172C0.0440835 41.8967 -0.59097 23.6504 1.31419 5.72984C2.90182 -13.1682 9.56989 -31.7404 17.1905 -49.3351C26.3988 -69.8622 38.7824 -88.4344 54.0236 -104.726C68.6299 -120.691 85.7763 -133.724 104.828 -144.151C117.211 -150.667 129.913 -156.532 143.566 -160.442C158.49 -164.678 173.414 -169.24 188.973 -168.914C193.418 -168.914 197.546 -168.588 201.991 -168.914C226.758 -169.891 249.938 -162.397 273.117 -154.252C280.42 -151.645 282.643 -147.083 282.643 -139.589C282.325 -89.7377 282.643 -40.2119 282.643 9.63979C282.643 29.8411 282.643 49.7166 282.643 69.9179C282.643 71.8729 282.643 74.1537 282.643 76.1086C282.325 81.6477 281.055 82.951 275.657 82.951C257.241 82.951 238.507 82.951 220.09 82.951C216.597 82.951 214.057 80.996 211.517 78.3894C194.053 61.1206 176.589 43.2 159.125 25.2795C158.49 24.302 157.537 23.9762 155.95 22.6729Z" fill="#EC6B00"/>
</svg>
