<svg width="35" height="54" viewBox="0 0 35 54" fill="none" xmlns="http://www.w3.org/2000/svg">
<path d="M30.2296 29.7015C33.1576 26.5622 34.998 22.3093 34.998 17.6051C34.998 7.63998 26.9764 -0.424302 17.1049 0.0173134C8.75791 0.468529 1.7122 7.40957 1.06154 16.0307C0.624672 21.2917 2.4744 26.111 5.61615 29.6919C8.86945 33.2729 10.8214 37.7562 10.8214 42.6812V43.4684H10.7099C9.62235 43.4684 8.75791 44.3613 8.75791 45.4845C8.75791 46.6077 9.62235 47.5006 10.7099 47.5006C9.62235 47.5006 8.75791 48.3934 8.75791 49.5166C8.75791 50.6399 9.62235 51.5327 10.7099 51.5327H13.5263V52.2047C13.5263 53.2128 14.2885 54 15.2645 54H20.6836C21.6595 54 22.4217 53.2128 22.4217 52.2047V51.5327H25.2382C26.3257 51.5327 27.1901 50.6399 27.1901 49.5166C27.1901 48.3934 26.3257 47.5006 25.2382 47.5006C26.3257 47.5006 27.1901 46.6077 27.1901 45.4845C27.1901 44.3613 26.3257 43.4684 25.2382 43.4684H25.1266V42.4604C25.1359 37.6506 27.0879 33.1673 30.2296 29.7015ZM19.7076 43.3628L23.7231 26.0054L22.6355 27.1287C22.1987 27.5799 21.548 27.5799 21.1204 27.1287L17.9787 23.9894L14.9392 27.1191C14.5023 27.5703 13.8516 27.5703 13.4241 27.1191L12.3365 26.0054L16.352 43.3628H14.0747L9.19478 22.6453C8.98099 21.5221 10.2823 20.85 11.0352 21.6373L14.0747 24.7766L17.1142 21.6373C17.5511 21.1861 18.2018 21.1861 18.6293 21.6373L21.6688 24.7766L24.7083 21.6373C25.4705 20.85 26.7719 21.6373 26.5488 22.6453L21.6688 43.3628H19.7076Z" fill="#CAD2DC"/>
</svg>
