<svg width="62" height="62" viewBox="0 0 62 62" fill="none" xmlns="http://www.w3.org/2000/svg">
<circle cx="31.4079" cy="31.0109" r="30.4472" fill="#E4451D"/>
<path d="M41.9725 23.0509C42.9812 23.0509 43.8041 22.2107 43.8041 21.1809V19.3019L46.8657 16.1763L45.0252 15.553C45.0252 15.553 41.008 19.6542 41.1584 19.5007C41.3089 19.3471 40.132 20.7925 40.132 21.1719V28.0464L43.8041 31.7954V41.1632V41.4794C43.8041 41.9943 43.3971 42.4189 42.8927 42.4189C42.3884 42.4189 41.9725 42.0033 41.9725 41.4794V41.1632V38.0376V37.7214C41.9725 36.1676 40.7426 34.912 39.2206 34.912H38.9198H38.3004V17.4229C38.3004 16.3931 37.4775 15.553 36.4599 15.553H20.5591C19.5415 15.553 18.7186 16.3931 18.7186 17.4229V45.5264H16.887V47.3964H40.132V45.5264H38.3004V36.7819H38.9109H39.2118C39.7161 36.7819 40.132 37.1975 40.132 37.7214V38.0376V41.1632V41.4794C40.132 43.0332 41.362 44.2888 42.8839 44.2888C44.4058 44.2888 45.6358 43.0332 45.6358 41.4794V41.1632V31.1721L41.9637 27.4231L41.9725 23.0509ZM34.6282 26.7908H22.3907V19.2929H34.6282V26.7908Z" fill="white"/>
</svg>
