<svg width="178" height="24" viewBox="0 0 178 24" fill="none" xmlns="http://www.w3.org/2000/svg">
<path d="M11.4642 21.8217C11.0493 22.094 10.7476 22.3274 10.4082 22.5219C8.52264 23.7277 6.4862 24.2723 4.2612 23.8444C2.33789 23.4943 0.867129 22.483 0.26374 20.4992C-0.415074 18.3598 0.0751803 15.7537 2.33789 14.2755C3.69552 13.4198 5.16628 13.0308 6.71247 13.0308C7.99467 12.9919 9.27687 13.1864 10.5968 13.2642C10.7853 13.2642 11.0116 13.3031 11.2002 13.3031C11.5019 12.1751 10.8608 10.8525 9.80484 10.3858C8.74891 9.91898 7.69298 9.91898 6.59933 10.1913C5.92052 10.3858 5.31713 10.6969 4.63832 10.9303C4.18577 11.0859 3.73323 11.2804 3.24298 11.3582C2.52645 11.4749 2.07391 11.2026 1.84764 10.6191C1.58365 10.0357 1.62137 9.41331 2.07391 8.98543C2.45103 8.63535 2.86586 8.28527 3.3184 8.09078C5.69425 7.11833 8.14552 6.92384 10.5968 7.58511C12.5955 8.12968 13.7646 9.53 14.104 11.6694C14.2171 12.4084 14.2548 13.1475 14.2926 13.8866C14.3303 15.8704 14.2926 17.8542 14.2926 19.8379C14.2926 20.7326 14.368 20.7715 15.1976 20.8493C15.4239 20.8493 15.6879 20.8493 15.9142 20.8882C16.6307 21.0049 16.9701 21.3939 17.0078 22.0551C17.0455 22.7942 16.7815 23.4166 16.1404 23.4943C14.9714 23.611 13.8023 23.611 12.6332 23.5332C12.3315 23.4943 12.0298 23.0665 11.7659 22.7942C11.6904 22.5608 11.615 22.2496 11.4642 21.8217ZM8.18323 15.5592C8.18323 15.5981 8.18323 15.637 8.18323 15.6759C7.73069 15.6759 7.27815 15.637 6.8256 15.6759C5.76967 15.7926 4.75145 16.0648 3.88408 16.765C2.56416 17.8542 2.71501 19.7213 4.22348 20.5381C4.48747 20.6937 4.78916 20.7715 5.05315 20.8493C7.08959 21.2383 8.86204 20.6159 10.4459 19.3712C11.2379 18.7488 11.5019 17.8931 11.3887 16.8817C11.3133 16.1815 11.2756 16.0648 10.6345 15.9093C9.88026 15.7537 9.01289 15.6759 8.18323 15.5592Z" fill="#999999"/>
<path d="M91.4514 20.6159C91.4514 20.0713 91.4136 19.4878 91.4514 18.9433C91.5268 18.1264 91.9039 17.6596 92.545 17.5429C93.2238 17.4263 93.7141 17.6596 94.0535 18.4376C94.8454 20.2658 96.3916 20.966 98.1641 21.1994C99.2954 21.3549 100.464 21.3549 101.558 20.8493C102.312 20.4992 102.84 19.9157 102.916 19.0211C102.991 18.2042 102.652 17.5429 101.898 17.2707C101.445 17.1151 100.955 17.0373 100.502 16.9984C99.3331 16.9206 98.1641 16.9206 96.995 16.8039C96.1653 16.7261 95.298 16.5316 94.5437 16.2204C92.8467 15.5592 91.7531 14.3533 91.6399 12.3695C91.4891 10.0746 92.7336 8.55753 94.2797 7.81847C95.9391 7.04052 97.7115 6.92382 99.5217 7.15721C100.163 7.23501 100.842 7.4295 101.445 7.62399C101.973 7.77958 102.426 7.81847 102.916 7.50729C103.104 7.3517 103.368 7.3128 103.595 7.23501C104.236 7.07941 104.801 7.3906 105.065 8.01296C105.141 8.24635 105.254 8.47974 105.254 8.71313C105.254 9.64668 105.292 10.5802 105.254 11.5138C105.216 12.0972 105.028 12.6807 104.349 12.9141C103.708 13.1086 103.255 12.8363 102.84 12.3695C102.501 11.9805 102.124 11.5916 101.784 11.2415C100.276 9.68557 98.4281 9.49108 96.5047 9.91896C95.9768 10.0357 95.4488 10.4246 95.0717 10.8136C94.242 11.7472 94.6192 13.1086 95.7882 13.3809C96.9196 13.6532 98.0887 13.6921 99.2577 13.8088C100.087 13.8865 100.955 13.9254 101.784 14.0032C102.237 14.0421 102.652 14.1977 103.104 14.3144C104.952 14.8979 106.084 16.1815 106.234 18.2042C106.385 20.2269 105.593 21.7828 103.972 22.8331C102.84 23.5721 101.596 23.8444 100.276 23.9222C98.7297 24 97.2213 23.8055 95.7128 23.4165C95.1471 23.2609 94.5814 23.222 94.0912 23.611C93.9403 23.7277 93.7141 23.8055 93.5255 23.8444C92.6204 24.0778 91.9416 23.7277 91.7531 22.7553C91.6022 22.0551 91.6399 21.3549 91.6022 20.6159C91.3759 20.6159 91.4136 20.6159 91.4514 20.6159Z" fill="#FB7505"/>
<path d="M145.719 23.5332C144.097 23.5332 142.475 23.5332 140.854 23.5332C140.514 23.5332 140.175 23.5332 139.873 23.4555C139.232 23.2999 138.855 22.7553 138.855 22.094C138.855 21.4328 139.232 20.8882 139.911 20.7715C140.401 20.6937 140.929 20.6937 141.457 20.6937C143.079 20.6937 143.003 20.8493 143.003 19.1378C143.003 16.7261 143.003 14.2756 143.003 11.8639C143.003 10.9303 142.966 10.8914 142.023 10.8525C141.42 10.8525 140.816 10.8914 140.213 10.8136C139.496 10.7747 139.044 10.3469 138.893 9.7245C138.704 8.82985 139.195 8.09079 140.1 8.01299C140.628 7.97409 141.193 7.97409 141.721 7.97409C142.626 7.97409 142.626 7.93519 142.702 7.04054C142.739 6.45707 142.777 5.87361 142.89 5.29014C143.154 3.77312 143.946 2.60618 145.304 2.02272C146.171 1.63374 147.114 1.36145 148.057 1.20586C149.377 0.972472 150.697 0.972472 152.017 1.24476C152.318 1.32255 152.62 1.40035 152.884 1.51704C153.638 1.82823 154.015 2.60618 153.864 3.30635C153.714 4.00651 153.035 4.47328 152.205 4.43438C151.79 4.39549 151.375 4.27879 150.961 4.23989C150.056 4.1621 149.15 4.04541 148.245 4.0843C146.096 4.1621 145.681 5.79581 145.832 7.46842C145.832 7.62401 146.096 7.8574 146.284 7.8963C146.624 7.97409 147.001 7.93519 147.378 7.93519C148.736 7.93519 150.093 7.93519 151.451 7.93519C152.054 7.93519 152.582 8.12968 152.846 8.79095C153.186 9.6856 152.733 10.6191 151.79 10.7747C151.375 10.8525 150.961 10.8136 150.546 10.8136C149.339 10.8136 148.132 10.8136 146.925 10.8136C146.058 10.8136 146.02 10.8914 146.02 11.7861C146.02 14.4311 146.02 17.0762 146.02 19.7213C146.02 20.577 146.096 20.6159 146.888 20.6548C148.17 20.6548 149.414 20.6548 150.697 20.6548C150.998 20.6548 151.3 20.6548 151.602 20.7326C152.356 20.8882 152.771 21.4717 152.733 22.2107C152.695 22.9887 152.281 23.4555 151.451 23.5332C150.772 23.5721 150.131 23.5721 149.452 23.5721C148.132 23.5332 146.925 23.5332 145.719 23.5332Z" fill="#FB7505"/>
<path d="M131.086 15.7924C131.199 19.2155 128.861 22.6385 125.015 23.572C122.563 24.1944 120.15 24.0388 117.887 22.8719C112.23 19.9934 112.268 11.8249 116.982 8.67414C120.263 6.45696 125.618 6.61255 128.56 9.3743C130.332 11.0469 131.124 13.1474 131.086 15.7924ZM122.337 21.0437C122.45 21.0437 122.563 21.0437 122.714 21.0437C124.939 20.9659 126.787 19.6822 127.541 17.5818C128.333 15.4035 127.768 12.7973 126.184 11.3192C124.336 9.56879 121.168 9.3743 119.056 10.8913C117.058 12.3305 116.303 15.2868 117.284 17.7373C118.113 19.8767 119.924 21.0437 122.337 21.0437Z" fill="#FB7505"/>
<path d="M164.688 15.2868C164.688 14.3144 164.688 13.3419 164.688 12.4084C164.688 11.2414 164.688 11.2414 163.519 11.2414C162.991 11.2414 162.5 11.2414 161.973 11.2414C161.143 11.2025 160.728 10.7746 160.69 9.99668C160.653 9.17983 160.992 8.71305 161.784 8.55746C162.387 8.44077 163.028 8.44077 163.67 8.40187C164.575 8.36297 164.65 8.32407 164.688 7.39053C164.688 6.53477 164.688 5.64012 164.688 4.78437C164.688 4.51208 164.688 4.2398 164.725 3.96751C164.876 3.15066 165.367 2.72278 166.159 2.72278C166.988 2.72278 167.441 3.11176 167.592 3.96751C167.667 4.43429 167.705 4.90106 167.705 5.36784C167.742 6.068 167.705 6.80706 167.705 7.50722C167.742 8.32407 167.818 8.44077 168.61 8.44077C170.194 8.44077 171.74 8.44077 173.324 8.44077C173.776 8.44077 174.229 8.47967 174.681 8.59636C175.36 8.79085 175.737 9.37432 175.662 10.0745C175.586 10.7357 175.134 11.1636 174.455 11.2414C174.153 11.2803 173.852 11.2803 173.55 11.2803C171.853 11.2803 170.194 11.2803 168.497 11.2803C167.742 11.2803 167.629 11.397 167.667 12.1361C167.705 14.2755 167.705 16.4148 167.818 18.5542C167.893 20.1101 168.685 20.8103 170.194 20.8881C171.589 20.9659 172.871 20.538 174.116 19.9934C174.606 19.799 175.059 19.5656 175.549 19.41C175.813 19.2933 176.114 19.2155 176.416 19.2155C177.133 19.1766 177.661 19.4878 177.887 20.0712C178.151 20.6936 177.962 21.3549 177.397 21.8216C177.095 22.055 176.756 22.2884 176.378 22.444C174.719 23.1831 172.984 23.7665 171.174 23.8832C169.666 23.9999 168.157 23.7665 166.837 22.9108C165.706 22.1717 164.952 21.1215 164.839 19.7601C164.688 18.3208 164.688 16.8427 164.612 15.4035C164.65 15.2868 164.65 15.2868 164.688 15.2868Z" fill="#FB7505"/>
<path d="M50.3453 15.3646C50.3453 14.3532 50.3453 13.303 50.3453 12.2917C50.3453 11.4748 50.2322 11.397 49.4402 11.3581C48.7991 11.3192 48.158 11.3581 47.5546 11.3192C46.7627 11.2414 46.3856 10.8135 46.3479 10.0745C46.3101 9.29652 46.6118 8.82974 47.3661 8.67415C47.8186 8.55746 48.3089 8.59636 48.7991 8.55746C49.0631 8.55746 49.3271 8.55746 49.6288 8.55746C50.1945 8.51856 50.3076 8.44077 50.3453 7.8184C50.383 6.84595 50.3453 5.87351 50.3453 4.93996C50.3453 4.55098 50.383 4.2009 50.4584 3.85081C50.647 3.15065 51.175 2.80057 51.8915 2.83947C52.6457 2.87837 53.1737 3.34514 53.2491 4.0842C53.3245 5.17334 53.2868 6.26248 53.2868 7.35162C53.2868 8.59636 53.2868 8.59636 54.4936 8.59636C56.0775 8.59636 57.6237 8.59636 59.2076 8.59636C59.5093 8.59636 59.811 8.59636 60.1127 8.63526C60.9423 8.79085 61.2817 9.17983 61.244 10.0356C61.244 10.8135 60.9046 11.2025 60.1127 11.3581C59.7733 11.397 59.4716 11.397 59.1322 11.397C57.5106 11.397 55.8889 11.397 54.2673 11.397C53.4 11.397 53.2868 11.4748 53.3245 12.3306C53.3623 14.4699 53.3623 16.6093 53.4754 18.7487C53.5508 20.149 54.2296 20.7714 55.5873 21.0048C56.4546 21.1604 57.322 21.0048 58.1517 20.7325C58.9436 20.4602 59.7356 20.1101 60.5275 19.799C61.0178 19.6045 61.4703 19.41 61.9983 19.2933C62.6394 19.1377 63.2428 19.4489 63.5067 20.0323C63.7707 20.5769 63.6576 21.316 63.2051 21.7438C62.9788 21.9772 62.6771 22.1717 62.3754 22.3273C60.2635 23.2609 58.0762 24.0388 55.7381 23.8832C54.3051 23.8054 52.9474 23.4165 51.8538 22.3662C50.7224 21.2771 50.4584 19.8767 50.4207 18.3986C50.3076 17.3484 50.3453 16.3759 50.3453 15.3646Z" fill="#999999"/>
<path d="M30.2449 10.619C31.0368 9.91887 31.6025 9.3743 32.2813 8.86863C33.7521 7.74059 35.4114 7.15712 37.2593 7.23492C38.0889 7.27381 38.8809 7.5072 39.5597 8.01287C40.2762 8.55744 40.5025 9.4521 40.2008 10.2301C39.8614 11.1247 39.0317 11.5526 38.1644 11.2414C37.8627 11.1636 37.5987 11.008 37.3347 10.8524C36.2788 10.2301 35.1851 10.269 34.1292 10.7746C32.6961 11.4748 31.5648 12.6028 30.5466 13.8476C30.358 14.042 30.3203 14.431 30.3203 14.7033C30.2826 16.4537 30.2826 18.1652 30.3203 19.9156C30.3203 20.6936 30.4334 20.8103 31.2254 20.8103C32.6584 20.8103 34.1292 20.8103 35.5622 20.8103C36.6182 20.8492 37.1461 21.6271 36.8822 22.6385C36.769 23.0664 36.505 23.3775 36.0902 23.4553C35.7885 23.5331 35.4868 23.6109 35.1851 23.6109C31.7911 23.6109 28.4347 23.6109 25.0406 23.6109C24.7012 23.6109 24.3618 23.572 24.0601 23.4553C23.419 23.2219 23.1173 22.7552 23.1927 22.0161C23.2305 21.3549 23.6076 20.927 24.2864 20.8492C25.0029 20.7714 25.7194 20.8103 26.436 20.8103C27.2279 20.7714 27.3411 20.7325 27.3411 19.9156C27.3411 17.0372 27.3411 14.1976 27.3411 11.3192C27.3411 10.5023 27.2279 10.4245 26.4737 10.3856C25.9457 10.3467 25.4555 10.3856 24.9652 10.269C24.211 10.1134 23.9093 9.56879 23.947 8.86863C23.9847 8.16846 24.3618 7.70169 25.0783 7.66279C26.4737 7.585 27.9067 7.585 29.3398 7.62389C29.9432 7.62389 30.2072 7.97398 30.2826 8.67414C30.2826 9.2965 30.2449 9.87997 30.2449 10.619Z" fill="#999999"/>
<path d="M79.0442 23.6498C77.1586 23.6498 75.3107 23.6498 73.4251 23.6498C73.0103 23.6498 72.5954 23.6109 72.1806 23.4942C71.5018 23.2998 71.1624 22.7941 71.2001 22.1328C71.2378 21.4716 71.7281 20.927 72.4069 20.8881C72.8594 20.8492 73.312 20.8492 73.7645 20.8492C74.5565 20.8492 75.3484 20.8492 76.1026 20.8492C77.4603 20.8492 77.4603 20.8492 77.4603 19.3711C77.4603 18.2819 77.4603 17.1928 77.4603 16.1036C77.4603 14.5477 77.4603 12.9918 77.4603 11.4359C77.4603 10.5023 77.3848 10.4245 76.4798 10.4245C75.9141 10.4245 75.3484 10.4245 74.745 10.4245C74.4056 10.4245 74.0662 10.3468 73.7645 10.269C73.2365 10.0745 72.9348 9.5688 72.9348 8.94643C72.9348 8.40186 73.2742 7.93508 73.8022 7.74059C74.1039 7.6628 74.4433 7.6239 74.7827 7.6239C76.1026 7.6239 77.4226 7.6239 78.7425 7.6239C80.1001 7.6239 80.3264 7.85729 80.3264 9.21872C80.3264 12.6417 80.3264 16.0647 80.3264 19.4878C80.3264 20.8492 80.3264 20.8492 81.684 20.8492C82.9662 20.8492 84.2107 20.8492 85.4929 20.8492C86.4734 20.8881 86.9259 21.4327 86.8128 22.4051C86.7374 23.0275 86.5111 23.3775 85.9077 23.4942C85.4929 23.572 85.0781 23.6109 84.6632 23.6109C82.8531 23.6498 80.9298 23.6498 79.0442 23.6498Z" fill="#999999"/>
<path d="M80.7411 2.45053C80.7411 2.83951 80.7788 3.26739 80.7411 3.65637C80.6657 4.35653 80.3262 4.74551 79.6474 4.78441C77.347 5.01779 77.0076 4.43433 77.1207 2.56723C77.1207 2.25604 77.1207 1.94486 77.1584 1.63368C77.1962 0.933515 77.3847 0.350047 78.139 0.11666C78.9686 -0.155625 79.7606 -0.116728 80.4394 0.466741C80.6279 0.66123 80.7411 1.01131 80.7788 1.2836C80.7788 1.71147 80.7411 2.10045 80.7411 2.45053Z" fill="#999999"/>
</svg>
