<svg width="62" height="62" viewBox="0 0 62 62" fill="none" xmlns="http://www.w3.org/2000/svg">
<circle cx="31.1728" cy="31.3266" r="29.9788" fill="#294C74" stroke="#254468" stroke-width="0.936837"/>
<path d="M44.6924 19.5425C44.6852 19.5196 44.6852 19.5043 44.678 19.4815C44.6852 19.5348 44.6852 19.5882 44.6852 19.6416C44.6852 19.6721 44.6709 19.8093 44.6709 19.8322C44.6565 19.9161 44.635 19.9923 44.6063 20.0762L44.592 20.1143L44.5848 20.1296C44.5776 20.1372 44.5776 20.1448 44.5776 20.1524C44.5776 20.1601 44.5776 20.1601 44.5705 20.1601C44.5705 20.1677 44.5705 20.1677 44.5633 20.1677C44.5561 20.1753 44.5561 20.1829 44.549 20.1906L44.4988 20.2897C44.4486 20.3888 44.3912 20.4879 44.3267 20.5794C44.3339 20.5718 44.3411 20.5642 44.3411 20.5642C44.3339 20.5718 44.3339 20.5794 44.3195 20.587C44.3124 20.5947 44.3124 20.6023 44.3052 20.6023C44.2909 20.6175 44.2837 20.6252 44.2765 20.6404C44.255 20.6633 44.2335 20.6938 44.212 20.7167C44.126 20.8234 44.0328 20.9225 43.9324 21.0217C43.9037 21.0522 43.8679 21.0827 43.8392 21.1055C43.8249 21.1208 43.8105 21.136 43.7962 21.1436C43.7818 21.1589 43.7603 21.1741 43.746 21.197C43.7173 21.2275 43.6815 21.258 43.6456 21.2809L43.6384 21.2885C43.6313 21.2961 43.6313 21.2961 43.6313 21.2961C43.6241 21.3038 43.6241 21.3038 43.6169 21.3114C43.6026 21.319 43.5883 21.3343 43.5811 21.3343C43.5668 21.3495 43.5452 21.3571 43.5309 21.3724C43.5094 21.3876 43.4951 21.4029 43.4736 21.4105C43.4592 21.4258 43.4449 21.4334 43.4305 21.441C43.1079 21.6774 42.7709 21.8832 42.4268 22.0739C42.2763 22.1577 42.1185 22.234 41.9608 22.3102C41.8891 22.3407 41.8246 22.3788 41.7529 22.4093C41.7529 22.4093 41.7457 22.4093 41.7457 22.417C41.7457 22.4246 41.7314 22.4246 41.7242 22.4246H41.717C41.6884 22.4398 41.6525 22.4551 41.6453 22.4551C41.6597 22.4475 41.6668 22.4398 41.6812 22.4398H41.674H41.6668C41.6453 22.4475 41.631 22.4551 41.6023 22.4703C41.2797 22.6076 40.9499 22.7372 40.6201 22.8516C40.2545 22.9888 39.8745 23.1032 39.5017 23.2099C39.387 23.2404 39.2722 23.2785 39.1575 23.309C39.093 23.3243 39.0213 23.3395 38.964 23.3624C38.9066 23.3777 38.8493 23.3929 38.7847 23.4082C38.7202 23.4234 38.6557 23.4387 38.5912 23.4615C38.5625 23.4692 38.5338 23.4768 38.4979 23.4844C38.4478 23.4997 38.3976 23.5073 38.3546 23.5149C38.3044 23.5302 38.247 23.5378 38.1968 23.553C38.1466 23.5683 38.0893 23.5759 38.0391 23.5912C37.9674 23.6064 37.8957 23.6217 37.824 23.6369C37.7523 23.6522 37.6735 23.6674 37.5946 23.6903C37.5301 23.7055 37.4727 23.7132 37.4082 23.7284C37.3508 23.7437 37.3006 23.7513 37.2505 23.7589C37.1931 23.7741 37.1357 23.7818 37.0784 23.7894C36.8776 23.8275 36.6769 23.858 36.4762 23.8961C36.4547 23.9038 36.4331 23.9038 36.4116 23.9114C36.3256 23.9266 36.2396 23.9419 36.1535 23.9495C36.1033 23.9571 36.0603 23.9648 36.0173 23.9724C36.003 23.9724 35.9958 23.98 35.9815 23.98H35.9671H36.0173V23.9724C36.0101 23.9724 36.0101 23.9571 36.003 23.9571L35.9958 23.9648V23.9571H35.9886C35.9886 23.9571 35.9886 23.9648 35.9958 23.9648L35.9886 23.9724C35.9815 23.9724 35.9671 23.98 35.96 23.98H35.9456C35.9313 23.9876 35.9169 23.9876 35.9026 23.9876C35.8237 24.0029 35.7449 24.0105 35.6588 24.0181C35.5011 24.041 35.3362 24.0563 35.1713 24.0791C35.0279 24.0944 34.8774 24.1096 34.734 24.1249C34.6551 24.1325 34.5763 24.1401 34.4974 24.1478C34.4042 24.1554 34.3182 24.163 34.2321 24.1706C34.1317 24.1783 34.0385 24.1859 33.931 24.1935C33.8521 24.2011 33.7661 24.2088 33.6801 24.2088C33.6371 24.2164 33.6012 24.2164 33.551 24.2164C33.508 24.224 33.4722 24.224 33.422 24.224C33.3431 24.2316 33.2571 24.2316 33.1782 24.2393C33.0922 24.2469 33.0061 24.2469 32.9201 24.2545C32.8556 24.2621 32.7911 24.2621 32.7265 24.2621C32.5975 24.2698 32.4684 24.2774 32.3394 24.2774C32.2749 24.2774 32.2103 24.285 32.1458 24.285C32.0669 24.2926 31.9737 24.2926 31.8877 24.2926H31.8805C31.8017 24.2926 31.7228 24.3003 31.6439 24.3003H31.5938H31.3715H30.8625H30.8481C30.7764 24.3003 30.6976 24.3003 30.6259 24.2926H30.5542C30.4753 24.2926 30.3965 24.285 30.3176 24.285C30.1384 24.2774 29.9663 24.2774 29.7871 24.2698C29.7512 24.2698 29.7082 24.2621 29.6723 24.2621C29.6365 24.2621 29.5935 24.2545 29.5576 24.2545C29.5361 24.2545 29.5218 24.2545 29.5003 24.2469C29.4358 24.2393 29.3712 24.2393 29.3067 24.2393C29.2493 24.2316 29.192 24.2316 29.1275 24.2316C29.0844 24.2316 29.0414 24.2164 28.9984 24.2164C28.898 24.2088 28.7905 24.1935 28.6901 24.1935H28.683C28.6399 24.1935 28.5969 24.1935 28.5539 24.1859C28.5109 24.1859 28.4679 24.1783 28.4249 24.1783C28.3962 24.1783 28.3675 24.1706 28.3388 24.1706H28.346C28.2958 24.163 28.2456 24.1706 28.1954 24.163C28.0234 24.1478 27.8513 24.1325 27.6864 24.1173C27.5215 24.102 27.3423 24.0868 27.1774 24.0639C27.163 24.0639 27.1415 24.0563 27.1272 24.0563C27.0985 24.0486 27.0698 24.0486 27.0483 24.0486H27.034C27.0196 24.0486 27.0053 24.041 26.9838 24.041C26.9623 24.0334 26.9336 24.0334 26.9121 24.0334H26.9049C26.8046 24.0181 26.7042 24.0105 26.5966 23.9953C26.5178 23.98 26.4389 23.9724 26.3529 23.9648C26.3385 23.9648 26.3314 23.9571 26.3242 23.9571C26.317 23.9571 26.317 23.9495 26.3099 23.9495V23.9419V23.9495V23.9571V23.9495L26.3027 23.9571V23.9648L26.2955 23.9571V23.9724C26.2955 23.9724 26.2884 23.9648 26.2884 23.9571L26.2812 23.9648H26.274H26.2669H26.2597C26.2525 23.9648 26.2525 23.9724 26.2525 23.9724V23.9648C26.2453 23.9648 26.2382 23.9648 26.231 23.9571H26.2238C26.1952 23.9495 26.1593 23.9495 26.1235 23.9419C26.0088 23.9266 25.9012 23.9114 25.7865 23.8885C25.7363 23.8809 25.6861 23.8733 25.6288 23.8656C25.5786 23.858 25.5284 23.8504 25.471 23.8428C25.4209 23.8351 25.3635 23.8275 25.3133 23.8199C25.1412 23.7894 24.9692 23.7589 24.7971 23.7208C24.7899 23.7208 24.7828 23.7132 24.7756 23.7132C24.6967 23.6979 24.625 23.6827 24.5462 23.6674C24.3311 23.6293 24.1232 23.5835 23.9153 23.5302C23.9009 23.5225 23.8794 23.5225 23.8579 23.5149C23.7719 23.492 23.6858 23.4768 23.5998 23.4539C23.5998 23.4539 22.1588 23.0422 22.1014 23.0193C21.9723 22.9812 21.8433 22.9354 21.7142 22.8897C21.7071 22.8897 21.7071 22.8897 21.7071 22.8821C21.6497 22.8668 21.5924 22.8439 21.535 22.8211C21.2267 22.7067 20.9184 22.5847 20.6102 22.4551C20.5958 22.4475 20.5815 22.4398 20.5743 22.4398C20.5671 22.4398 20.5456 22.4246 20.5385 22.4246C20.5313 22.4246 20.5313 22.417 20.5313 22.417H20.5385C20.5313 22.417 20.5313 22.4093 20.5241 22.4093C20.5313 22.4093 20.5313 22.417 20.5313 22.417C20.5241 22.4093 20.5169 22.4093 20.5098 22.4093C20.5026 22.4093 20.5026 22.4017 20.4954 22.4017C20.4883 22.4017 20.4883 22.4017 20.4883 22.3941H20.4954C20.4381 22.3636 20.3807 22.3407 20.3162 22.3102C20.1585 22.234 20.0007 22.1501 19.843 22.0662C19.5634 21.9137 19.2838 21.746 19.0185 21.563C18.8967 21.4791 18.7819 21.3876 18.6601 21.3038C18.6457 21.2961 18.6386 21.2885 18.6314 21.2809L18.6816 21.319C18.6457 21.2885 18.6242 21.2656 18.617 21.2656H18.6242C18.6099 21.258 18.6027 21.2504 18.5955 21.2351C18.5525 21.197 18.5095 21.1589 18.4665 21.1208C18.3661 21.0217 18.2657 20.9225 18.1654 20.8234C18.151 20.8539 18.1223 20.8158 18.0937 20.7777C18.0435 20.7243 18.0005 20.6709 17.9575 20.6175V20.6252C17.9646 20.6404 17.9718 20.6404 17.9718 20.648C17.9646 20.6404 17.9431 20.6099 17.9288 20.587V20.5794C17.9216 20.5718 17.9216 20.5718 17.9144 20.5642L17.9073 20.5565C17.8714 20.5032 17.8356 20.4422 17.7997 20.3888C17.7639 20.3278 17.7352 20.2668 17.6994 20.1982V20.1906C17.6922 20.1677 17.6635 20.0838 17.6635 20.0838C17.6778 20.0991 17.685 20.1219 17.6922 20.1448C17.6778 20.0914 17.6563 20.0457 17.642 19.9923C17.6205 19.9085 17.6133 19.8246 17.5918 19.7407C17.5918 19.6873 17.5918 19.6263 17.5918 19.5653V19.5272C17.5918 19.5272 17.5846 19.5272 17.5918 19.5196L17.599 19.5043V19.4967C17.599 19.4662 17.6061 19.4434 17.6061 19.4129C17.6061 19.4434 17.599 19.4662 17.599 19.4815C17.6061 19.451 17.6133 19.4052 17.6205 19.3671C17.6348 19.3061 17.6492 19.2451 17.6707 19.1841C17.6778 19.1689 17.685 19.146 17.6922 19.1307C17.7495 19.0164 17.7997 18.902 17.8642 18.7953C17.8929 18.7419 17.9288 18.6885 17.9646 18.6428C17.979 18.6275 17.9933 18.6046 18.0076 18.5894C18.108 18.4674 18.2156 18.3454 18.3303 18.2387C18.3876 18.1853 18.4378 18.1319 18.5023 18.0785C18.531 18.048 18.5669 18.0175 18.6027 17.9947C18.6099 17.987 18.6314 17.9718 18.6529 17.9565C18.6457 17.9642 18.6386 17.9718 18.6314 17.9718C18.6386 17.9642 18.6386 17.9642 18.6457 17.9642C18.6672 17.9413 18.6816 17.9337 18.6887 17.926C18.6816 17.926 18.6816 17.9337 18.6816 17.9337L18.6887 17.926C18.7174 17.9032 18.7533 17.8803 18.7819 17.8574C18.8608 17.7964 18.9397 17.7431 19.0257 17.6821C19.1834 17.5753 19.3412 17.4762 19.4989 17.3771C19.843 17.1712 20.1943 16.9958 20.5528 16.8281C20.5743 16.8205 20.603 16.8052 20.6245 16.7976C20.6747 16.7747 20.7177 16.7595 20.7607 16.7366C20.8754 16.6832 20.9901 16.6375 21.112 16.5917C21.3343 16.5079 21.5494 16.424 21.7716 16.3477C22.7825 15.997 23.8149 15.7378 24.8616 15.5243C25.1484 15.4633 25.4424 15.4175 25.7363 15.3642C25.8725 15.3413 26.0159 15.3184 26.1521 15.2955C26.1665 15.2955 26.2023 15.2879 26.231 15.2803C26.2382 15.2803 26.2453 15.2803 26.2525 15.2727C26.2597 15.2727 26.274 15.265 26.2812 15.265H26.2884C26.3457 15.2574 26.4031 15.2498 26.4676 15.2422C27.0842 15.1583 27.7079 15.0973 28.3317 15.0439C30.9127 14.8457 33.5223 14.9067 36.089 15.2574C36.0962 15.2574 36.1033 15.2574 36.1105 15.265C36.1033 15.265 36.0962 15.265 36.0962 15.2574C36.1249 15.265 36.1464 15.265 36.1535 15.265C36.1464 15.265 36.132 15.265 36.1177 15.2574C36.1392 15.265 36.1535 15.265 36.1679 15.265C36.2324 15.2727 36.2969 15.2879 36.3614 15.2955C36.5192 15.3184 36.6769 15.3489 36.8418 15.3718C37.1214 15.4252 37.401 15.4709 37.6735 15.5319C38.2112 15.6387 38.7489 15.7683 39.2794 15.9131C39.7669 16.0504 40.2545 16.1953 40.7348 16.3706C40.9642 16.4545 41.1865 16.5384 41.4159 16.6299C41.5163 16.668 41.6167 16.7137 41.717 16.7519C41.7529 16.7671 41.7959 16.79 41.8389 16.8052C41.8174 16.7976 41.8102 16.79 41.7959 16.79C41.8246 16.8052 41.8676 16.8128 41.8891 16.8205C42.2619 16.9958 42.6276 17.1865 42.986 17.4076C43.1509 17.5067 43.3087 17.6134 43.4664 17.7278C43.5381 17.7812 43.6026 17.8269 43.6671 17.8803C43.6886 17.8955 43.7101 17.9108 43.7317 17.9337C43.6241 17.8346 43.8392 18.0175 43.7532 17.9565C43.746 17.9489 43.7388 17.9413 43.7317 17.9337C43.7388 17.9413 43.7388 17.9413 43.746 17.9413C43.9826 18.1472 44.1977 18.3759 44.3984 18.6199C44.4056 18.6351 44.4128 18.6428 44.4199 18.6504C44.4629 18.7114 44.4988 18.78 44.5418 18.8486C44.5705 18.9096 44.6063 18.963 44.635 19.024C44.6422 19.0392 44.6493 19.0545 44.6565 19.0697C44.6924 19.1841 44.7282 19.2985 44.7497 19.4129C44.7497 19.4205 44.7569 19.4281 44.7569 19.4357C44.7569 19.4205 44.7569 19.4129 44.7497 19.4052C44.6708 19.2909 44.6995 19.573 44.6924 19.5425Z" fill="white"/>
<path d="M44.7282 27.4989C44.7282 27.5062 44.7354 27.5134 44.7354 27.5207C44.7354 27.528 44.7067 27.6005 44.6638 27.7457C44.6638 27.7529 44.6566 27.7529 44.6566 27.7602C44.6566 27.7674 44.6494 27.7747 44.6494 27.7819V27.7892C44.6494 27.7965 44.6494 27.7965 44.6423 27.7965H44.6494C44.6494 27.8037 44.6566 27.811 44.6566 27.8182C44.6566 27.8255 44.6423 27.8255 44.6423 27.8327L44.6351 27.84L44.628 27.8472C44.6208 27.8545 44.6208 27.869 44.6136 27.8763V27.8835C44.6065 27.898 44.5993 27.9126 44.5993 27.9198C44.5778 27.9561 44.5635 27.9924 44.5348 28.0287C44.5134 28.0722 44.4847 28.1085 44.4632 28.1593C44.4489 28.1811 44.4346 28.2101 44.4131 28.2319C44.4274 28.2173 44.3486 28.3334 44.3558 28.3117C44.2484 28.4423 44.1337 28.5584 44.012 28.6745C43.9404 28.7398 43.8687 28.8051 43.7971 28.8632C43.7756 28.885 43.747 28.8995 43.7255 28.9212C43.6682 28.972 43.6181 29.0228 43.6897 28.9503C43.6825 28.9503 43.6825 28.9575 43.6825 28.9575L43.6754 28.9648C43.6395 28.9938 43.6037 29.0228 43.5608 29.0446C43.1955 29.3058 42.8087 29.5308 42.4148 29.734C42.2644 29.8066 42.1068 29.8864 41.9492 29.9589C41.9277 29.9735 41.7343 30.075 41.72 30.0605C41.7487 30.046 41.7845 30.0315 41.8131 30.0243C41.7845 30.0388 41.7487 30.0533 41.72 30.0605C41.6699 30.0823 41.6197 30.0968 41.5768 30.1186C39.9795 30.7644 38.282 31.149 36.5845 31.4175C36.4556 31.4393 36.341 31.4538 36.2121 31.4756C36.1763 31.4828 36.1405 31.4901 36.0975 31.4901H36.0903H36.0832H36.076H36.0688H36.0617H36.0545H36.0474H36.0402H36.033C36.0187 31.4901 36.0044 31.4974 35.9972 31.4974C35.725 31.5336 35.46 31.5627 35.1879 31.5917C34.6793 31.6497 34.1708 31.6933 33.6623 31.7223C32.8457 31.7731 32.0292 31.7949 31.2127 31.7949H31.1984C31.0766 31.7949 30.9549 31.7949 30.8331 31.7876C30.6182 31.7876 30.4033 31.7804 30.1885 31.7731C30.124 31.7731 30.0595 31.7659 29.9951 31.7659C29.9593 31.7659 29.9163 31.7586 29.8733 31.7586H29.8447H29.8017C29.7516 31.7586 29.7014 31.7513 29.6585 31.7513C29.5725 31.7441 29.4866 31.7441 29.4006 31.7368C29.3147 31.7296 29.2287 31.7296 29.1428 31.7223H29.1356C29.1213 31.7223 29.1069 31.7223 29.0855 31.7151C28.9923 31.7078 28.9064 31.7005 28.8204 31.7005H28.8133C28.7058 31.6933 28.6056 31.686 28.4981 31.6788H28.491C28.2904 31.6643 28.0899 31.6497 27.8965 31.628H27.9037C27.8822 31.628 27.8535 31.6207 27.832 31.6207C27.7747 31.6135 27.7174 31.6062 27.653 31.6062C27.6386 31.6062 27.6315 31.6062 27.6172 31.5989C27.5813 31.5917 27.5455 31.5917 27.5169 31.5844H27.5097C27.4954 31.5844 27.4811 31.5772 27.4596 31.5772C27.4453 31.5772 27.4309 31.5699 27.4238 31.5699C27.4023 31.5627 27.3736 31.5627 27.3521 31.5627C27.3163 31.5554 27.2734 31.5554 27.2304 31.5482C27.1229 31.5336 27.0155 31.5264 26.9152 31.5119C26.8651 31.5046 26.815 31.4974 26.772 31.4974C26.7362 31.4901 26.7004 31.4901 26.6645 31.4828C26.6431 31.4756 26.6287 31.4756 26.6072 31.4756C26.5786 31.4683 26.5499 31.4683 26.5213 31.4611C26.4998 31.4538 26.4855 31.4538 26.464 31.4538C26.4568 31.4538 26.4497 31.4538 26.4354 31.4466H26.4282C26.421 31.4466 26.4139 31.4466 26.4139 31.4393C26.4067 31.4393 26.3995 31.4393 26.3924 31.432H26.378H26.3637H26.3566H26.3494V31.4248H26.3422H26.3351V31.432V31.4393H26.3279V31.432L26.3208 31.4393V31.4466H26.3136H26.3064H26.2993L26.2921 31.4393C26.2849 31.4393 26.2849 31.432 26.2849 31.432C26.2778 31.432 26.2778 31.432 26.2706 31.4248C26.242 31.4175 26.2205 31.4175 26.199 31.4103H26.1847C26.1775 31.4103 26.1775 31.4103 26.1703 31.403C26.0629 31.3885 25.9626 31.374 25.8552 31.3522C25.848 31.3522 25.8337 31.345 25.8265 31.345C25.7549 31.3305 25.6761 31.3232 25.6045 31.3087C25.5902 31.3087 25.583 31.3014 25.5759 31.3014C25.5687 31.3014 25.5544 31.2942 25.5472 31.2942C25.5329 31.2869 25.5186 31.2869 25.4971 31.2869C25.4398 31.2724 25.3753 31.2651 25.318 31.2579C25.2894 31.2506 25.2535 31.2434 25.2177 31.2434C25.2106 31.2434 25.2034 31.2361 25.1891 31.2361C25.1175 31.2216 25.053 31.2143 24.9814 31.1998C24.9241 31.1853 24.8668 31.1781 24.8023 31.1708C24.7737 31.1635 24.7379 31.1563 24.702 31.149C24.6161 31.1345 24.5301 31.12 24.4442 31.0982C24.437 31.0982 24.4299 31.091 24.4155 31.091C24.3368 31.0765 24.258 31.062 24.1792 31.0402C24.172 31.0402 24.1649 31.0329 24.1577 31.0329C24.0789 31.0184 24.0001 30.9966 23.9213 30.9821H23.9142C23.8354 30.9604 23.7566 30.9458 23.6778 30.9241C23.6205 30.9096 23.5704 30.8951 23.5059 30.8878C23.4916 30.8805 23.4773 30.8805 23.4701 30.8805C23.4486 30.8733 23.4271 30.866 23.4056 30.866C23.3985 30.866 23.3985 30.866 23.3913 30.8588C23.334 30.8443 23.2767 30.8297 23.2123 30.8152L22.9329 30.7427C22.8255 30.7136 22.718 30.6846 22.6106 30.6483C22.5676 30.6338 22.5247 30.6266 22.4817 30.612C22.4387 30.5975 22.3957 30.5903 22.3528 30.5758C22.3026 30.5612 22.2525 30.5467 22.2095 30.5322C22.145 30.5104 22.0734 30.4959 22.009 30.4742C21.6007 30.3435 21.1996 30.2057 20.8057 30.046C20.7484 30.0243 20.6982 30.0025 20.6481 29.9807C20.6266 29.9735 20.598 29.9589 20.5765 29.9517C20.5765 29.9517 20.5693 29.9517 20.5693 29.9444H20.5621C20.6266 29.9735 20.4905 29.9154 20.4834 29.9154C20.4905 29.9154 20.5048 29.9227 20.5335 29.9372C20.5263 29.9299 20.5192 29.9299 20.5192 29.9299H20.512C20.4977 29.9227 20.4834 29.9154 20.469 29.9081C20.4547 29.9009 20.4404 29.8936 20.4261 29.8864H20.4189C20.4117 29.8864 20.4117 29.8864 20.4117 29.8791C20.4046 29.8791 20.4046 29.8719 20.3974 29.8719C20.3974 29.8719 20.3902 29.8719 20.3902 29.8646C20.3831 29.8573 20.3759 29.8573 20.3688 29.8573H20.3831C20.3473 29.8428 20.3115 29.8283 20.2828 29.8066C20.1825 29.763 20.0894 29.705 19.9891 29.6614C19.9748 29.6542 19.9677 29.6469 19.9605 29.6469C19.9319 29.6324 19.896 29.6106 19.8602 29.5961C19.8244 29.5816 19.7958 29.5598 19.76 29.5453C19.7241 29.5308 19.6955 29.509 19.6597 29.4945C19.631 29.4727 19.5952 29.4582 19.5594 29.4365C19.5308 29.4219 19.5021 29.4074 19.4663 29.3857C19.4162 29.3566 19.3732 29.3349 19.3302 29.3058C19.2872 29.2768 19.2443 29.255 19.2013 29.226C19.1726 29.2115 19.144 29.1897 19.1225 29.1752C19.1153 29.168 19.1082 29.168 19.101 29.1607C19.0795 29.1462 19.0509 29.1317 19.0294 29.1099C19.0007 29.0954 18.9721 29.0736 18.9506 29.0519C18.9434 29.0446 18.9434 29.0446 18.9363 29.0446C18.9291 29.0373 18.9219 29.0373 18.9148 29.0301C18.8861 29.0083 18.8503 28.9865 18.8145 28.9648C18.7859 28.943 18.75 28.914 18.7142 28.8922C18.7071 28.885 18.6999 28.885 18.6999 28.8777C18.6999 28.8704 18.6856 28.8632 18.6713 28.8559C18.6641 28.8487 18.6569 28.8414 18.6498 28.8414C18.6498 28.8414 18.6426 28.8414 18.6426 28.8342C18.7286 28.9067 18.4922 28.7253 18.6426 28.8342L18.6354 28.8269H18.6283H18.6211L18.614 28.8196C18.5996 28.8124 18.5925 28.8051 18.5925 28.7979C18.5137 28.7326 18.4277 28.66 18.349 28.5874C18.3346 28.5729 18.3203 28.5584 18.2988 28.5439C18.2845 28.5294 18.2773 28.5221 18.2702 28.5149C18.2558 28.5003 18.2415 28.4931 18.2344 28.4786C18.22 28.4641 18.2129 28.4568 18.2057 28.4496C18.1985 28.4423 18.1985 28.4423 18.1914 28.435C18.1842 28.4278 18.1842 28.4278 18.1771 28.4205C18.1556 28.3988 18.1412 28.3842 18.1198 28.3552C18.0983 28.3334 18.0696 28.3044 18.0481 28.2826C18.041 28.2754 18.041 28.2754 18.041 28.2754C18.041 28.2681 18.0338 28.2681 18.0338 28.2681C18.0052 28.2391 17.9837 28.2101 17.955 28.1738L17.9479 28.1665C17.955 28.1738 17.955 28.1738 17.9335 28.152C17.9264 28.1448 17.9264 28.1448 17.9264 28.1375C17.9264 28.1303 17.912 28.123 17.912 28.1157H17.9335L17.9264 28.1085V28.1157H17.9192L17.912 28.1085H17.9192C17.9049 28.0867 17.8906 28.0722 17.8834 28.0504C17.8691 28.0359 17.8619 28.0142 17.8547 27.9996L17.8333 27.9634C17.8118 27.9343 17.7974 27.9053 17.776 27.869C17.776 27.8618 17.7688 27.8618 17.7688 27.8545C17.7545 27.8255 17.7401 27.7965 17.7187 27.7602C17.7043 27.7384 17.6972 27.6949 17.6828 27.6658C17.6828 27.6731 17.69 27.6731 17.69 27.6803C17.7043 27.7094 17.7115 27.7457 17.7187 27.7529V27.7457V27.7384C17.7187 27.7311 17.7115 27.7239 17.7115 27.7239V27.7166V27.7094C17.7043 27.6876 17.6972 27.6658 17.69 27.6513C17.69 27.6441 17.6828 27.6441 17.6828 27.6441V27.6368C17.69 27.6368 17.69 27.6441 17.69 27.6441C17.6828 27.6295 17.6757 27.615 17.6757 27.5933C17.6542 27.528 17.6399 27.4626 17.6184 27.4046C17.6184 27.3973 17.6112 27.3901 17.6112 27.3828V27.4699C17.6041 27.4554 17.6041 27.4481 17.6041 27.4336V27.4409V27.4336V27.4264V27.4336V27.4264C17.6041 27.4191 17.6041 27.4046 17.5969 27.3973C17.5897 27.3611 17.5826 27.3175 17.5969 27.3683C17.5897 27.3465 17.5897 27.3393 17.5897 27.332C17.5897 27.3393 17.6041 27.3611 17.6041 27.3973C17.6041 27.4046 17.6112 27.4118 17.6112 27.4191V27.4264C17.6112 27.4191 17.6041 27.4118 17.6041 27.4046C17.6041 27.3393 17.5969 27.2667 17.5969 27.2014V22.4265C17.7115 22.5281 17.8404 22.6224 17.9622 22.7095C17.9765 22.724 17.998 22.7313 18.0123 22.7458C18.4564 23.0578 18.9363 23.3191 19.409 23.544C20.1467 23.8996 20.9131 24.1899 21.6938 24.4294C21.8872 24.4874 22.2167 24.589 22.4315 24.6471C22.496 24.6616 22.5533 24.6761 22.6178 24.6979C22.6966 24.7196 22.8613 24.7632 22.8613 24.7632C22.9186 24.7777 22.9759 24.7922 23.0332 24.814C23.0905 24.8285 23.1406 24.843 23.1908 24.8502C23.1979 24.8502 23.2051 24.8502 23.2051 24.8575C24.2508 25.1042 25.3108 25.2929 26.3852 25.4308C26.4497 25.438 26.507 25.4453 26.5714 25.4525C28.1472 25.6412 29.7301 25.7283 31.3058 25.721C31.6568 25.721 32.0006 25.7138 32.3515 25.7065C32.373 25.7065 32.4017 25.7065 32.4232 25.6993C32.7526 25.6848 33.0821 25.6775 33.4187 25.6557C35.1306 25.5541 36.8495 25.351 38.5256 24.9954C38.5829 24.9809 38.633 24.9736 38.6903 24.9591C38.7404 24.9446 38.7834 24.9373 38.8335 24.9301C38.855 24.9228 38.8837 24.9156 38.9052 24.9156C39.1487 24.8575 39.385 24.8067 39.6286 24.7414C40.7889 24.4439 41.9349 24.052 43.0164 23.5295C43.3244 23.3844 43.6252 23.2175 43.926 23.0433C43.9547 23.0216 43.9905 23.007 44.0263 22.9853C44.0693 22.9563 44.1123 22.9272 44.1552 22.9055C44.1982 22.8764 44.2483 22.8474 44.2913 22.8184C44.3128 22.8039 44.3415 22.7893 44.3558 22.7676C44.4919 22.6732 44.6208 22.5789 44.7426 22.4773V27.1796C44.7426 27.2595 44.7211 27.3756 44.7282 27.4699C44.7354 27.4554 44.7354 27.4481 44.7426 27.4336C44.7497 27.4191 44.7497 27.4118 44.7569 27.3973C44.7497 27.4191 44.7426 27.4554 44.7426 27.4772C44.7282 27.4844 44.7282 27.4917 44.7282 27.4989Z" fill="white"/>
<path d="M44.4416 30.1828C44.5491 30.1029 44.6566 30.023 44.7569 29.9359V34.8807C44.7569 34.9024 44.7497 34.9315 44.7497 34.9533C44.7425 34.9751 44.7425 34.9896 44.7354 35.0114C44.7354 35.0186 44.7282 35.0259 44.7282 35.0259C44.7282 35.0331 44.7211 35.0404 44.7211 35.0477C44.7139 35.0622 44.7139 35.0767 44.7067 35.0912V35.0985C44.6924 35.1348 44.6852 35.1784 44.6709 35.2219C44.6637 35.2365 44.6566 35.2582 44.6494 35.28C44.6494 35.2873 44.6422 35.2873 44.6422 35.2873C44.6422 35.2945 44.6351 35.2945 44.6351 35.3018L44.6207 35.3309C44.6207 35.3381 44.6136 35.3381 44.6136 35.3454C44.5992 35.3672 44.5921 35.3962 44.5777 35.418C44.5706 35.4325 44.5634 35.4398 44.5562 35.4543C44.5491 35.4615 44.5491 35.4688 44.5491 35.4688C44.5419 35.4761 44.5419 35.4833 44.5347 35.4906C44.5276 35.5051 44.5204 35.5124 44.5132 35.5196C44.4774 35.585 44.4344 35.6503 44.3914 35.7084L44.3842 35.7157C44.3771 35.7229 44.3771 35.7229 44.3771 35.7302C44.3771 35.7375 44.3699 35.7375 44.3699 35.7447C44.3699 35.752 44.3627 35.7593 44.3556 35.7593C44.3197 35.8028 44.2839 35.8464 44.2481 35.8899C44.0904 36.0715 43.9184 36.2312 43.7321 36.3837C43.7249 36.391 43.7177 36.3982 43.7106 36.4055C43.7034 36.4127 43.6962 36.4127 43.6962 36.42L43.6891 36.4273C43.6819 36.4345 43.6747 36.4345 43.6747 36.4418H43.6676L43.6604 36.449C43.6532 36.4563 43.6461 36.4636 43.6389 36.4636C43.6389 36.4636 43.6461 36.4636 43.6461 36.4563C43.6102 36.4854 43.5744 36.5144 43.5314 36.5362C43.4096 36.6233 43.2877 36.7104 43.1588 36.7831C42.9653 36.9065 42.7646 37.0154 42.5568 37.1243C42.5496 37.1316 42.5424 37.1316 42.5353 37.1388C42.4134 37.2042 42.2916 37.2623 42.1698 37.3204C42.0981 37.3494 42.0264 37.3857 41.9548 37.422C41.9404 37.4293 41.9261 37.4365 41.9046 37.4438C41.8759 37.4583 41.8473 37.4656 41.8258 37.4801C41.8186 37.4801 41.8186 37.4874 41.8114 37.4874H41.8043C41.7971 37.4946 41.7828 37.4946 41.7756 37.5019C41.7684 37.5019 41.7684 37.5019 41.7684 37.5092C41.7613 37.5164 41.7541 37.5164 41.7541 37.5164H41.7469H41.7398C41.7398 37.5164 41.7326 37.5164 41.7326 37.5237C41.6824 37.5455 41.6323 37.56 41.5821 37.589C41.4746 37.6326 41.36 37.6762 41.2525 37.7197C41.0303 37.7996 40.801 37.8795 40.5716 37.9593C40.0915 38.1191 39.6113 38.257 39.124 38.3805C38.5865 38.5184 38.049 38.6346 37.5044 38.7363C37.2177 38.7944 36.931 38.8379 36.6444 38.8888C36.5011 38.9105 36.3649 38.9323 36.2144 38.9541C36.2001 38.9541 36.1929 38.9614 36.1857 38.9614H36.1786H36.1714C36.1499 38.9686 36.1069 38.9686 36.0711 38.9759C36.0711 38.9904 36.0711 38.9759 36.0639 38.9759L36.0567 38.9977C36.0567 38.9977 36.0496 38.9904 36.0424 38.9904L36.0352 38.9831C35.9851 38.9904 35.9062 38.9977 35.8847 39.0049C35.2469 39.0848 34.6019 39.1501 33.9569 39.1937C33.8853 39.201 33.8136 39.201 33.7419 39.2082C33.6989 39.2155 33.656 39.2155 33.613 39.2155C33.57 39.2155 33.527 39.2228 33.484 39.2228C33.4338 39.23 33.3836 39.23 33.3263 39.23C31.4917 39.3317 29.6499 39.3026 27.8224 39.1502C27.5357 39.1284 27.2419 39.0921 26.9553 39.063C26.8191 39.0485 26.6829 39.034 26.5468 39.0122C26.4823 39.0049 26.4106 38.9977 26.3461 38.9904C26.3246 38.9831 26.3031 38.9831 26.2816 38.9831H26.2601H26.2458V38.9904L26.2529 38.9977H26.2458H26.2386C26.2386 38.9831 26.2314 38.9759 26.2314 38.9759C26.2243 38.9759 26.2243 38.9831 26.2243 38.9831C25.6868 38.9105 25.1493 38.8089 24.6118 38.7072C23.7948 38.5475 22.985 38.3514 22.1895 38.1118C22.0605 38.0755 21.9315 38.032 21.8097 37.9956C21.7739 37.9811 21.738 37.9739 21.695 37.9593C21.6664 37.9521 21.6449 37.9448 21.6234 37.9303C21.5159 37.894 21.4084 37.8577 21.3009 37.8141C21.2435 37.7923 21.1934 37.7778 21.1432 37.756H21.136C21.1145 37.7488 21.093 37.7415 21.0715 37.7343C21.0429 37.7197 21.0071 37.7125 20.9784 37.6979C20.9139 37.6762 20.8494 37.6471 20.7849 37.6253H20.8207C20.7849 37.6108 20.7491 37.5963 20.7061 37.5818C20.6774 37.5672 20.6416 37.5527 20.6129 37.5455H20.6201C20.6129 37.5455 20.6129 37.5382 20.6057 37.5382C20.5986 37.5382 20.5914 37.5309 20.5771 37.5237C20.5699 37.5237 20.5699 37.5164 20.5627 37.5164C20.5484 37.5092 20.5412 37.5092 20.5341 37.5019H20.5269H20.5197C20.4911 37.4874 20.4624 37.4801 20.4409 37.4656C20.4194 37.4511 20.3907 37.4438 20.3692 37.4365C20.3621 37.4293 20.3477 37.4293 20.3406 37.422C20.3047 37.4075 20.2689 37.3857 20.2259 37.3712C20.1757 37.3494 20.1327 37.3276 20.0897 37.3058C20.0252 37.2768 19.9607 37.2478 19.9034 37.2115C19.7242 37.1243 19.5522 37.0299 19.3874 36.9283C19.3731 36.921 19.3588 36.9138 19.3516 36.9065C19.2728 36.8557 19.1939 36.8121 19.1151 36.7613C19.0004 36.6887 18.8858 36.6088 18.7783 36.5289C18.7639 36.5217 18.7138 36.4854 18.6851 36.4636L18.6779 36.4563C18.6779 36.4563 18.6708 36.4636 18.6708 36.4563C18.6708 36.4563 18.6708 36.4636 18.6636 36.4636L18.6564 36.4563V36.449C18.6493 36.4418 18.6493 36.4418 18.6493 36.4418L18.6421 36.4345C18.6278 36.4273 18.6206 36.4127 18.6134 36.4055C18.5991 36.391 18.5848 36.3764 18.5633 36.3692C18.5561 36.3619 18.5489 36.3547 18.5418 36.3547C18.5274 36.3474 18.5203 36.3401 18.5131 36.3329C18.5059 36.3256 18.4988 36.3183 18.4844 36.3111C18.4558 36.2893 18.4271 36.2603 18.4056 36.2385C18.3841 36.224 18.3698 36.2094 18.3483 36.1877C18.3268 36.1659 18.3053 36.1441 18.2838 36.1223C18.2766 36.115 18.2694 36.1078 18.2623 36.1005C18.2551 36.0933 18.2479 36.086 18.2408 36.0787C18.2336 36.0642 18.2193 36.057 18.2121 36.0497C18.1476 35.9843 18.0831 35.9117 18.0258 35.8464C18.0186 35.8391 17.9756 35.7883 17.9541 35.752L17.9469 35.7447C17.9398 35.7375 17.9398 35.7302 17.9326 35.7302C17.9254 35.7229 17.9254 35.7157 17.9183 35.7084C17.9183 35.7084 17.9183 35.7012 17.9111 35.7012C17.8968 35.6794 17.8896 35.6649 17.8753 35.6431C17.8466 35.6068 17.8251 35.5632 17.8036 35.5196C17.7893 35.4979 17.7821 35.4833 17.7678 35.4543C17.7606 35.447 17.7606 35.4398 17.7535 35.4325C17.7463 35.418 17.7391 35.4107 17.7391 35.4035C17.7391 35.4035 17.7391 35.3962 17.732 35.3962C17.7176 35.3672 17.7033 35.3381 17.689 35.3091C17.6818 35.3018 17.689 35.3018 17.6818 35.2945V35.2873H17.7033C17.6961 35.28 17.6961 35.2655 17.6961 35.2582C17.6818 35.2219 17.6675 35.1856 17.6603 35.1421C17.6603 35.1348 17.6603 35.1348 17.6531 35.1275C17.646 35.1058 17.6388 35.0767 17.6316 35.0549C17.6316 35.0477 17.6245 35.0404 17.6245 35.0404V35.0331V35.0259C17.6245 35.0186 17.6245 35.0186 17.6173 35.0186C17.6101 34.9823 17.603 34.9533 17.5958 34.917V34.8952C17.5958 34.8734 17.5886 34.8444 17.5886 34.8298V29.9214C17.7678 30.0666 17.9613 30.2046 18.1548 30.3353C18.3483 30.466 18.5418 30.5821 18.7424 30.6983C18.9288 30.8072 19.1366 30.9452 19.3588 31.0178C19.3659 31.0178 19.3659 31.0251 19.3731 31.0251C19.4376 31.0541 19.5092 31.0904 19.5737 31.1195C19.6024 31.134 19.6382 31.1485 19.6669 31.1558C19.7171 31.1775 19.7672 31.1993 19.8174 31.2211C19.8532 31.2356 19.8891 31.2502 19.9249 31.2719C21.2149 31.831 22.5765 32.2159 23.9453 32.4991C24.8698 32.6878 25.8014 32.8403 26.7403 32.9492C26.8478 32.9638 26.9481 32.971 27.0556 32.9855H27.0628C27.0986 32.9928 27.1273 32.9928 27.1631 33.0001C27.4426 33.0291 27.7221 33.0581 28.0016 33.0799C28.2667 33.1017 28.5319 33.1235 28.8042 33.138H28.8114C28.8472 33.1453 28.8759 33.1453 28.9117 33.1453C29.2987 33.1671 29.6857 33.1816 30.0655 33.1961C32.2011 33.2615 34.3368 33.1525 36.4509 32.8621C36.4581 32.8621 36.4652 32.8621 36.4724 32.8548C37.1317 32.7604 37.791 32.6443 38.4432 32.5063C39.8335 32.2231 41.1951 31.8238 42.4994 31.2647C42.8578 31.1122 43.2232 30.9379 43.5816 30.7419C43.5887 30.7346 43.5959 30.7346 43.6031 30.7274C43.6246 30.7128 43.6532 30.6983 43.6747 30.6838C43.9471 30.5168 44.1979 30.357 44.4416 30.1828Z" fill="white"/>
<path d="M44.7569 37.4306V42.2256C44.7497 42.2548 44.7497 42.2839 44.7497 42.3204C44.7497 42.3714 44.7497 42.4151 44.7425 42.4661C44.7211 42.5609 44.7067 42.6556 44.6709 42.7503C44.6566 42.7941 44.6351 42.8378 44.6207 42.8815C44.6279 42.8669 44.6279 42.8524 44.6351 42.8451C44.6279 42.8524 44.6279 42.8596 44.6279 42.8596C44.5777 42.9617 44.5204 43.0564 44.4559 43.1511C44.4344 43.1803 44.4201 43.2094 44.3986 43.2386C44.4057 43.2313 44.4129 43.224 44.4201 43.2167C44.4057 43.2313 44.3914 43.2459 44.3842 43.2677C44.3771 43.275 44.3699 43.2896 44.3627 43.2969C44.3484 43.3187 44.3341 43.3333 44.3197 43.3406C44.2481 43.4208 44.1764 43.5009 44.1047 43.5738C44.0187 43.6613 43.9256 43.7414 43.8396 43.8216C43.7894 43.8653 43.7249 43.9017 43.6819 43.9527C43.6604 43.9673 43.6461 43.9819 43.6246 43.9965C43.1086 44.3754 42.5424 44.6815 41.9619 44.9438C41.8903 44.973 41.8114 45.0021 41.7469 45.0386C41.8043 45.0094 41.8329 44.9875 41.8401 44.9875C41.8329 44.9948 41.7111 45.0531 41.6681 45.0677C41.4818 45.1406 41.2955 45.2134 41.102 45.2863C40.7365 45.4248 40.3638 45.5414 39.984 45.6507C39.1312 45.8985 38.2712 46.1025 37.3969 46.2628C37.1675 46.2993 36.9382 46.343 36.7089 46.3794C36.6014 46.394 36.4939 46.4086 36.3936 46.4304C36.3291 46.4377 36.2646 46.4523 36.2001 46.4596C36.1857 46.4669 36.1642 46.4669 36.1499 46.4669H36.1356H36.1284H36.1141H36.0997H36.1069C35.6124 46.5397 35.1108 46.5908 34.6091 46.6345C32.5021 46.8239 30.3737 46.8312 28.2596 46.6709C27.7364 46.6345 27.2204 46.5762 26.6973 46.5179C26.5898 46.5033 26.4751 46.4887 26.3676 46.4814C26.3533 46.4814 26.3103 46.4742 26.2744 46.4669H26.2959C26.2601 46.4596 26.2243 46.4523 26.1884 46.4523C25.9304 46.4159 25.6796 46.3794 25.4216 46.3357C24.5258 46.1827 23.6443 46.0005 22.77 45.76C22.0247 45.556 21.2865 45.3082 20.5699 45.0094C20.5771 45.0094 20.5771 45.0167 20.5771 45.0167C20.6917 45.0677 20.5484 45.0094 20.5269 44.9948C20.5341 44.9948 20.5412 45.0021 20.5484 45.0021C20.5126 44.9875 20.4767 44.973 20.4481 44.9511C20.3764 44.922 20.3047 44.8855 20.2331 44.8491C20.0682 44.7762 19.9106 44.6888 19.7457 44.6086C19.4734 44.4629 19.2083 44.3098 18.9574 44.1349C18.8428 44.0621 18.7353 43.9819 18.6278 43.9017C18.6349 43.909 18.6421 43.9163 18.6564 43.9236C18.7639 44.0183 18.4988 43.807 18.6134 43.8944C18.6206 43.9017 18.6206 43.9017 18.6278 43.9017C18.6206 43.8944 18.6063 43.8872 18.5991 43.8799C18.5418 43.8289 18.4844 43.7778 18.4199 43.7268C18.2623 43.5811 18.1261 43.4281 17.9899 43.2677C18.0043 43.2823 18.0114 43.2896 18.0114 43.2896C18.0043 43.2823 17.9756 43.2459 17.9469 43.2167C17.9398 43.2094 17.9326 43.2022 17.9326 43.1949C17.8968 43.1439 17.8681 43.0928 17.8323 43.0418C17.7821 42.9617 17.7463 42.8815 17.7033 42.8013C17.6961 42.7868 17.6961 42.7795 17.689 42.7722C17.6746 42.7285 17.6603 42.6848 17.6531 42.641C17.6388 42.5973 17.6316 42.5536 17.6245 42.5099C17.6173 42.4953 17.6173 42.488 17.6173 42.4734C17.6101 42.4443 17.6101 42.4078 17.6101 42.3714C17.603 42.3058 17.5886 42.2621 17.5886 42.1965V42.1528V42.1455C17.5958 42.058 17.5886 41.9633 17.5886 41.8759V37.416C18.4199 38.1083 19.4662 38.6111 20.4266 38.9901C20.4839 39.0119 20.5412 39.0338 20.5986 39.0557H20.6057C20.6631 39.0775 20.7204 39.0994 20.7849 39.1212C20.8136 39.1358 20.8422 39.1431 20.8709 39.1504C20.9282 39.1723 20.9784 39.1868 21.0286 39.2087C21.0644 39.2233 21.1002 39.2306 21.136 39.2451C21.2005 39.267 21.265 39.2889 21.3224 39.3107C21.437 39.3472 21.5517 39.3836 21.6664 39.42C22.0175 39.5293 22.3615 39.6314 22.7198 39.7188C23.0997 39.8135 23.4795 39.9083 23.8593 39.9884H23.8737C24.8555 40.1925 25.8444 40.3455 26.8334 40.4621C27.5572 40.5423 28.2811 40.6079 29.0049 40.6516C29.0765 40.6589 29.1482 40.6589 29.2199 40.6662C29.5352 40.6807 29.8505 40.6953 30.1587 40.7026C30.7248 40.7172 31.291 40.7245 31.85 40.7099C31.9217 40.7099 31.9862 40.7026 32.0578 40.7026H32.0865C32.1725 40.7026 32.2585 40.6953 32.3445 40.6953C32.3875 40.6953 32.4305 40.688 32.4735 40.688C33.1543 40.6662 33.8279 40.6224 34.5088 40.5641C35.1251 40.5058 35.7486 40.4475 36.3721 40.3601C36.9239 40.2872 37.4757 40.1925 38.0204 40.0905C38.6008 39.9812 39.1813 39.85 39.7547 39.6969C39.769 39.6897 39.7762 39.6897 39.7833 39.6897C40.2563 39.5585 40.715 39.42 41.1736 39.267C42.1339 38.9391 43.0943 38.5383 43.9614 37.999C44.2409 37.8241 44.5061 37.6346 44.7569 37.4306Z" fill="white"/>
</svg>
