<svg width="61" height="61" viewBox="0 0 61 61" fill="none" xmlns="http://www.w3.org/2000/svg">
<circle cx="30.4472" cy="30.4472" r="30.4472" fill="#E4451D"/>
<path d="M45.3768 22.1973H35.1316V17.4195C35.1316 16.5138 34.7724 15.6473 34.1321 15.0071C33.4918 14.3591 32.625 14 31.7114 14H19.4203C18.5066 14 17.6399 14.3591 16.9995 14.9993C16.3592 15.6395 16 16.506 16 17.4195V43.3776C16 44.2832 16.3592 45.1498 16.9995 45.79C17.6399 46.4302 18.5066 46.7893 19.4203 46.7893H31.7192C32.625 46.7893 33.4918 46.4302 34.1321 45.79C34.7724 45.1498 35.1316 44.2832 35.1316 43.3776V38.592H45.3768C46.2826 38.592 47.1494 38.2328 47.7897 37.5927C48.4301 36.9525 48.7893 36.0859 48.7893 35.1803V25.6168C48.7893 24.7112 48.4301 23.8446 47.7897 23.2044C47.1572 22.5564 46.2905 22.1973 45.3768 22.1973ZM22.1534 15.3662H28.9861V16.0532C28.9861 16.428 28.6815 16.7324 28.2989 16.7402H22.8327C22.4579 16.7402 22.1534 16.4358 22.1455 16.0532V15.3662H22.1534ZM28.2989 44.0568H22.8327C22.4579 44.0568 22.1455 43.7524 22.1455 43.3698C22.1455 42.9873 22.4501 42.6828 22.8327 42.6828H28.2989C28.6737 42.6828 28.9861 42.9873 28.9861 43.3698C28.9861 43.7524 28.6737 44.0568 28.2989 44.0568ZM47.4305 35.1725C47.4305 35.719 47.2119 36.2343 46.8293 36.6168C46.4466 36.9993 45.9234 37.2179 45.3846 37.2179H28.2989C27.7523 37.2179 27.2369 36.9993 26.8543 36.6168C26.4716 36.2343 26.253 35.7112 26.253 35.1725V29.0206H47.4384L47.4305 35.1725ZM47.4305 26.296H26.2452V25.609C26.2452 25.0625 26.4638 24.5472 26.8465 24.1647C27.2291 23.7821 27.7523 23.5635 28.2911 23.5635H45.369C45.9156 23.5635 46.431 23.7821 46.8136 24.1647C47.1963 24.5472 47.4149 25.0703 47.4149 25.609L47.4305 26.296Z" fill="white"/>
</svg>
