<svg width="62" height="62" viewBox="0 0 62 62" fill="none" xmlns="http://www.w3.org/2000/svg">
<circle cx="30.6009" cy="31.3266" r="29.9788" fill="#FB7504" stroke="#E26904" stroke-width="0.936837"/>
<path d="M47.3303 23.1292H37.0852V18.3513C37.0852 17.4457 36.726 16.5792 36.0856 15.939C35.4453 15.291 34.5785 14.9319 33.6649 14.9319H21.3738C20.4602 14.9319 19.5934 15.291 18.9531 15.9312C18.3127 16.5713 17.9535 17.4379 17.9535 18.3513V44.3095C17.9535 45.2151 18.3127 46.0817 18.9531 46.7219C19.5934 47.362 20.4602 47.7212 21.3738 47.7212H33.6727C34.5785 47.7212 35.4453 47.362 36.0856 46.7219C36.726 46.0817 37.0852 45.2151 37.0852 44.3095V39.5238H47.3303C48.2362 39.5238 49.1029 39.1647 49.7433 38.5246C50.3836 37.8844 50.7428 37.0178 50.7428 36.1122V26.5487C50.7428 25.6431 50.3836 24.7765 49.7433 24.1363C49.1108 23.4883 48.244 23.1292 47.3303 23.1292ZM24.1069 16.2981H30.9396V16.9851C30.9396 17.3599 30.6351 17.6643 30.2524 17.6721H24.7862C24.4114 17.6721 24.1069 17.3677 24.0991 16.9851V16.2981H24.1069ZM30.2524 44.9887H24.7862C24.4114 44.9887 24.0991 44.6843 24.0991 44.3017C24.0991 43.9192 24.4036 43.6147 24.7862 43.6147H30.2524C30.6273 43.6147 30.9396 43.9192 30.9396 44.3017C30.9396 44.6843 30.6273 44.9887 30.2524 44.9887ZM49.3841 36.1044C49.3841 36.6509 49.1654 37.1661 48.7828 37.5487C48.4002 37.9312 47.877 38.1498 47.3382 38.1498H30.2524C29.7058 38.1498 29.1904 37.9312 28.8078 37.5487C28.4252 37.1661 28.2065 36.6431 28.2065 36.1044V29.9525H49.3919L49.3841 36.1044ZM49.3841 27.2279H28.1987V26.5409C28.1987 25.9944 28.4174 25.4791 28.8 25.0966C29.1826 24.714 29.7058 24.4954 30.2446 24.4954H47.3225C47.8692 24.4954 48.3845 24.714 48.7672 25.0966C49.1498 25.4791 49.3684 26.0022 49.3684 26.5409L49.3841 27.2279Z" fill="white"/>
</svg>
