<svg width="44" height="43" viewBox="0 0 44 43" fill="none" xmlns="http://www.w3.org/2000/svg">
<path d="M38.9602 10.75H25.5246V4.48429C25.5246 3.29667 25.0535 2.16024 24.2138 1.32071C23.3741 0.470952 22.2374 0 21.0393 0H4.92066C3.72251 0 2.58581 0.470952 1.74609 1.31048C0.906367 2.15 0.435303 3.28643 0.435303 4.48429V38.526C0.435303 39.7136 0.906367 40.85 1.74609 41.6895C2.58581 42.529 3.72251 43 4.92066 43H21.0495C22.2374 43 23.3741 42.529 24.2138 41.6895C25.0535 40.85 25.5246 39.7136 25.5246 38.526V32.25H38.9602C40.1481 32.25 41.2848 31.779 42.1245 30.9395C42.9642 30.1 43.4353 28.9636 43.4353 27.776V15.2343C43.4353 14.0467 42.9642 12.9102 42.1245 12.0707C41.295 11.221 40.1583 10.75 38.9602 10.75ZM8.50484 1.79167H17.4653V2.69262C17.4653 3.18405 17.0659 3.58333 16.5641 3.59357H9.39577C8.90422 3.59357 8.50484 3.19429 8.4946 2.69262V1.79167H8.50484ZM16.5641 39.4167H9.39577C8.90422 39.4167 8.4946 39.0174 8.4946 38.5157C8.4946 38.014 8.89398 37.6148 9.39577 37.6148H16.5641C17.0557 37.6148 17.4653 38.014 17.4653 38.5157C17.4653 39.0174 17.0557 39.4167 16.5641 39.4167ZM41.6535 27.7657C41.6535 28.4824 41.3667 29.1581 40.8649 29.6598C40.3631 30.1614 39.677 30.4481 38.9704 30.4481H16.5641C15.8473 30.4481 15.1714 30.1614 14.6696 29.6598C14.1679 29.1581 13.8811 28.4721 13.8811 27.7657V19.6981H41.6637L41.6535 27.7657ZM41.6535 16.125H13.8709V15.224C13.8709 14.5074 14.1576 13.8317 14.6594 13.33C15.1612 12.8283 15.8473 12.5417 16.5539 12.5417H38.95C39.6668 12.5417 40.3427 12.8283 40.8445 13.33C41.3462 13.8317 41.633 14.5176 41.633 15.224L41.6535 16.125Z" fill="#CAD2DC"/>
</svg>
