<svg width="26" height="47" viewBox="0 0 26 47" fill="none" xmlns="http://www.w3.org/2000/svg">
<path d="M3.75892 0C1.95379 0 0.498047 1.4306 0.498047 3.20455V43.7955C0.498047 45.5694 1.95379 47 3.75892 47H22.2372C24.0423 47 25.498 45.5694 25.498 43.7955V3.20455C25.498 1.4306 24.0423 0 22.2372 0H3.75892ZM2.67196 5.34091H23.3241V39.5227H2.67196V5.34091ZM12.998 41.6591C13.9006 41.6591 14.6285 42.3744 14.6285 43.2614C14.6285 44.1483 13.9006 44.8636 12.998 44.8636C12.0955 44.8636 11.3676 44.1483 11.3676 43.2614C11.3676 42.3744 12.0955 41.6591 12.998 41.6591Z" fill="#CAD2DC"/>
</svg>
