<svg width="62" height="62" viewBox="0 0 62 62" fill="none" xmlns="http://www.w3.org/2000/svg">
<circle cx="31" cy="31.037" r="30.4472" fill="#E4451D"/>
<g clip-path="url(#clip0_309_2419)">
<path d="M33.8223 40.4594C34.4866 40.261 35.1164 40.0022 35.7117 39.6743L38.438 42.0297L41.984 38.4837L39.6287 35.7574C39.9565 35.1621 40.2153 34.5323 40.4138 33.8679L44.0115 33.6005V28.5792L40.4138 28.3118C40.2153 27.6474 39.9565 27.0176 39.6287 26.4223L41.984 23.696L38.438 20.15L35.7117 22.5054C35.1164 22.1775 34.4866 21.9187 33.8223 21.7203L33.5548 18.1226H28.5335L28.2661 21.7203C27.6018 21.9187 26.972 22.1775 26.3766 22.5054L23.6503 20.15L20.1044 23.696L22.4597 26.4223C22.1319 27.0176 21.873 27.6474 21.6746 28.3118L18.0769 28.5792V33.6005L21.6746 33.8679C21.873 34.5323 22.1319 35.1621 22.4597 35.7574L20.1044 38.4837L23.6503 42.0297L26.3766 39.6743C26.972 40.0022 27.6018 40.261 28.2661 40.4594L28.5335 44.0572H33.5548L33.8223 40.4594ZM25.9108 31.0899C25.9108 28.2514 28.2143 25.9478 31.0528 25.9478C33.8913 25.9478 36.1949 28.2514 36.1949 31.0899C36.1949 33.9283 33.8913 36.2319 31.0528 36.2319C28.2143 36.2319 25.9108 33.9283 25.9108 31.0899Z" fill="white"/>
<path d="M31.0528 13.8778C31.5877 13.8778 32.0191 13.4464 32.0191 12.9115V10.5561C32.0191 10.0212 31.5877 9.58984 31.0528 9.58984C30.5179 9.58984 30.0865 10.0212 30.0865 10.5561V11.9711C20.2942 12.4542 12.4172 20.3312 11.934 30.1236H10.5191C9.98419 30.1236 9.55281 30.5549 9.55281 31.0898C9.55281 31.6248 9.98419 32.0561 10.5191 32.0561H12.8744C13.4094 32.0561 13.8407 31.6248 13.8407 31.0898C13.8407 21.5995 21.5624 13.8778 31.0528 13.8778Z" fill="white"/>
<path d="M51.5865 30.1235H49.2312C48.6963 30.1235 48.2649 30.5549 48.2649 31.0898C48.2649 40.5802 40.5432 48.3019 31.0528 48.3019C30.5179 48.3019 30.0865 48.7333 30.0865 49.2682V51.6235C30.0865 52.1584 30.5179 52.5898 31.0528 52.5898C31.5877 52.5898 32.0191 52.1584 32.0191 51.6235V50.2086C41.8114 49.7168 49.6798 41.8398 50.1716 32.0561H51.5865C52.1214 32.0561 52.5528 31.6247 52.5528 31.0898C52.5528 30.5549 52.1214 30.1235 51.5865 30.1235Z" fill="white"/>
</g>
<defs>
<clipPath id="clip0_309_2419">
<rect width="43" height="43" fill="white" transform="translate(9.55281 9.58984)"/>
</clipPath>
</defs>
</svg>
