<svg width="43" height="41" viewBox="0 0 43 41" fill="none" xmlns="http://www.w3.org/2000/svg">
<path fill-rule="evenodd" clip-rule="evenodd" d="M20.6627 0.553935C20.8034 0.219816 21.1374 0 21.4978 0C21.8582 0 22.1922 0.219816 22.3328 0.553935L27.6683 13.1626C27.8177 13.5143 28.1429 13.7517 28.5209 13.7868L42.1627 14.965C42.5231 15.0002 42.8396 15.2464 42.9538 15.5893C43.0681 15.941 42.9626 16.3191 42.6813 16.5565L32.3445 25.5338C32.0544 25.78 31.9313 26.1668 32.0192 26.5449L35.1045 39.8833C35.1836 40.2438 35.0517 40.6131 34.7529 40.8241C34.454 41.0352 34.0585 41.0528 33.7508 40.8681L22.0252 33.8076C21.7 33.6142 21.2956 33.6142 20.9704 33.8076L9.24472 40.8681C8.92828 41.0528 8.53274 41.044 8.24267 40.8241C7.94382 40.6131 7.81197 40.235 7.89108 39.8833L10.9851 26.5449C11.073 26.1756 10.9412 25.7888 10.6599 25.5338L0.31422 16.5653C0.0417342 16.3279 -0.0637441 15.941 0.0417342 15.5981C0.156002 15.2552 0.463648 15.009 0.832822 14.9738L14.4747 13.7956C14.8526 13.7605 15.1867 13.5231 15.3273 13.1713L20.6627 0.553935Z" fill="#CAD2DC"/>
</svg>
