<svg width="24" height="22" viewBox="0 0 24 22" fill="none" xmlns="http://www.w3.org/2000/svg">
<path fill-rule="evenodd" clip-rule="evenodd" d="M12.8436 0.571461C12.6709 0.221533 12.3145 0 11.9242 0C11.534 0 11.1776 0.221533 11.0049 0.571461L8.07511 6.50685L1.52326 7.4645C1.13718 7.52093 0.8166 7.79161 0.696256 8.16276C0.575912 8.53392 0.676668 8.94121 0.956176 9.21345L5.69622 13.8303L4.57756 20.3526C4.51158 20.7373 4.66973 21.126 4.98549 21.3554C5.30125 21.5848 5.71986 21.615 6.06529 21.4334L11.9242 18.3522L17.7832 21.4334C18.1286 21.615 18.5472 21.5848 18.863 21.3554C19.1788 21.126 19.3369 20.7373 19.2709 20.3526L18.1523 13.8303L22.8923 9.21345C23.1718 8.94121 23.2726 8.53392 23.1522 8.16276C23.0319 7.79161 22.7113 7.52093 22.3252 7.4645L15.7734 6.50685L12.8436 0.571461Z" fill="#BC5803"/>
</svg>
