<svg width="61" height="62" viewBox="0 0 61 62" fill="none" xmlns="http://www.w3.org/2000/svg">
<circle cx="30.4472" cy="30.9472" r="30.4472" fill="#E4451D"/>
<path fill-rule="evenodd" clip-rule="evenodd" d="M18.2577 34.7577C19.7033 33.3121 21.664 32.5 23.7083 32.5H36.0417C38.086 32.5 40.0467 33.3121 41.4923 34.7577C42.9379 36.2033 43.75 38.164 43.75 40.2083V43.2917C43.75 44.1431 43.0598 44.8333 42.2083 44.8333C41.3569 44.8333 40.6667 44.1431 40.6667 43.2917V40.2083C40.6667 38.9817 40.1794 37.8053 39.312 36.938C38.4447 36.0706 37.2683 35.5833 36.0417 35.5833H23.7083C22.4817 35.5833 21.3053 36.0706 20.438 36.938C19.5706 37.8053 19.0833 38.9817 19.0833 40.2083V43.2917C19.0833 44.1431 18.3931 44.8333 17.5417 44.8333C16.6902 44.8333 16 44.1431 16 43.2917V40.2083C16 38.164 16.8121 36.2033 18.2577 34.7577Z" fill="white"/>
<path fill-rule="evenodd" clip-rule="evenodd" d="M29.8751 17.0833C27.3208 17.0833 25.2501 19.154 25.2501 21.7083C25.2501 24.2627 27.3208 26.3333 29.8751 26.3333C32.4294 26.3333 34.5001 24.2627 34.5001 21.7083C34.5001 19.154 32.4294 17.0833 29.8751 17.0833ZM22.1667 21.7083C22.1667 17.4511 25.6179 14 29.8751 14C34.1323 14 37.5834 17.4511 37.5834 21.7083C37.5834 25.9655 34.1323 29.4167 29.8751 29.4167C25.6179 29.4167 22.1667 25.9655 22.1667 21.7083Z" fill="white"/>
</svg>
